<?xml version="1.0" encoding="iso-8859-1"?>
<!-- Generator: Adobe Illustrator 19.0.0, SVG Export Plug-In . SVG Version: 6.00 Build 0)  -->
<svg xmlns="http://www.w3.org/2000/svg" xmlns:xlink="http://www.w3.org/1999/xlink" version="1.1" id="Layer_1" x="0px" y="0px" viewBox="0 0 508.726 508.726" style="enable-background:new 0 0 508.726 508.726;" xml:space="preserve" width="512" height="512">
<g>
	<g>
		<g>
			<g>
				<g>
					<path style="fill:rgb(0,0,0);" d="M190.193,118.986h-15c0-18.069,6.248-35.743,17.592-49.764l11.661,9.436       C195.122,90.183,190.193,104.128,190.193,118.986z"/>
				</g>
				<g>
					<path style="fill:rgb(0,0,0);" d="M333.533,118.986h-15c0-14.858-4.929-28.804-14.254-40.329l11.661-9.436       C327.285,83.244,333.533,100.917,333.533,118.986z"/>
				</g>
			</g>
		</g>
		<g>
			<rect x="214.546" y="310.569" style="fill:rgb(0,0,0);" width="15.927" height="15"/>
		</g>
		<g>
			<rect x="278.253" y="310.569" style="fill:rgb(0,0,0);" width="15.927" height="15"/>
		</g>
		<g>
			<rect x="31.39" y="453.909" style="fill:rgb(0,0,0);" width="47.78" height="15"/>
		</g>
		<g>
			<rect x="214.546" y="453.909" style="fill:rgb(0,0,0);" width="47.78" height="15"/>
		</g>
		<g>
			<rect x="397.702" y="453.909" style="fill:rgb(0,0,0);" width="47.78" height="15"/>
		</g>
		<g>
			<rect x="246.4" y="167.229" style="fill:rgb(0,0,0);" width="15.927" height="15"/>
			<rect x="246.4" y="199.083" style="fill:rgb(0,0,0);" width="15.927" height="15"/>
			<path style="fill:rgb(0,0,0);" d="M445.019,414.092v-31.853H261.863v-16.854h63.707v-94.633h-63.707v-33.024     c62.128-3.884,111.486-55.653,111.486-118.743C373.349,53.377,319.972,0,254.363,0S135.377,53.377,135.377,118.986     c0,63.09,49.358,114.859,111.486,118.743v33.024h-63.707v94.633h63.707v16.854H63.707v31.853H0v94.634h142.413v-94.634H78.707     v-16.853h168.156v16.853h-63.707v94.634H325.57v-94.634h-63.707v-16.853h168.156v16.853h-63.707v94.634h142.413v-94.634H445.019z      M254.363,127.413c-13.429,0-24.354-10.925-24.354-24.354V71.206c0-13.428,10.925-24.353,24.354-24.353     c13.428,0,24.353,10.925,24.353,24.353v31.854C278.716,116.488,267.791,127.413,254.363,127.413z M245.936,158.34v-16.845     c2.717,0.595,5.534,0.918,8.427,0.918s5.71-0.323,8.427-0.918v9.345l0.037,7.43l7.429,0.07     c0.104,0.001,10.562,0.169,20.629,6.232c13.03,7.849,19.65,21.936,19.682,41.866c-16.217,10.458-35.513,16.534-56.203,16.534     s-39.987-6.076-56.203-16.534c0.032-19.93,6.652-34.017,19.682-41.866c10.067-6.063,20.524-6.231,20.594-6.232H245.936z      M150.377,118.986C150.377,61.648,197.025,15,254.363,15s103.986,46.648,103.986,103.986c0,30.135-12.89,57.312-33.44,76.322     c-3.027-24.809-15.916-37.542-26.95-43.979c-7.436-4.337-14.876-6.32-20.169-7.227v-9.444     c9.657-7.178,15.926-18.669,15.926-31.599V71.206c0-21.699-17.654-39.353-39.353-39.353c-21.7,0-39.354,17.653-39.354,39.353     v31.854c0,12.93,6.27,24.421,15.927,31.599v9.444c-5.292,0.906-12.733,2.89-20.169,7.227     c-11.034,6.437-23.923,19.17-26.95,43.979C163.267,176.299,150.377,149.121,150.377,118.986z M198.156,285.753H310.57v64.633     H198.156V285.753z M127.413,493.726H15v-64.634h112.413V493.726z M310.57,493.726H198.156v-64.634H310.57V493.726z      M493.725,493.726H381.313v-64.634h112.413V493.726z"/>
			<rect x="246.4" y="310.569" style="fill:rgb(0,0,0);" width="15.927" height="15"/>
			<rect x="95.097" y="453.909" style="fill:rgb(0,0,0);" width="15.926" height="15"/>
			<rect x="278.253" y="453.909" style="fill:rgb(0,0,0);" width="15.927" height="15"/>
			<rect x="461.409" y="453.909" style="fill:rgb(0,0,0);" width="15.927" height="15"/>
		</g>
	</g>
</g>















</svg>