<?xml version="1.0" encoding="utf-8"?>
<!-- Generator: Adobe Illustrator 23.0.1, SVG Export Plug-In . SVG Version: 6.00 Build 0)  -->
<svg version="1.1" id="Camada_1" xmlns="http://www.w3.org/2000/svg" xmlns:xlink="http://www.w3.org/1999/xlink" x="0px" y="0px"
	 width="500px" height="350px" viewBox="0 0 500 350" style="enable-background:new 0 0 500 350;" xml:space="preserve">
<g>
	<path d="M418.68,215.27c6.74,2.11,12.22,7.17,12.22,18.97c0,12.22-7.59,17.7-12.65,18.97c-2.53,0.42-4.64,0.42-8.01,0.42h-10.96
		v-39.63h8.85C411.93,214.01,415.73,214.43,418.68,215.27z M419.52,224.12c-1.69-2.95-4.22-3.79-8.01-3.79h-4.22v26.98h5.06
		c1.26,0,2.53,0,4.64-1.26c2.11-0.84,4.64-3.79,4.64-11.38C422.05,230.03,421.21,226.65,419.52,224.12z"/>
	<path d="M441.86,253.63v-39.63h24.87l-1.26,6.32h-15.6v9.27h13.07v6.74h-13.07v10.54h17.28v6.74H441.86z"/>
	<path d="M135.4,255.32c-5.48,0-10.12-1.26-13.49-4.64c-3.79-3.79-5.9-8.85-5.9-15.18c0-5.06,1.26-9.27,3.37-12.65
		c3.37-5.48,9.7-8.85,16.44-8.85c4.22,0,8.85,1.26,10.96,2.95l-3.79,5.48c-2.11-1.26-4.64-2.11-7.17-2.11
		c-3.37,0-6.74,1.69-8.43,4.22c-1.69,2.11-2.11,5.06-2.11,9.7c0,5.48,0.42,8.43,2.53,10.96c2.11,2.53,4.64,3.79,8.43,3.79
		c2.95,0,5.06-0.84,7.59-2.53l3.79,5.06C144.68,254.05,140.46,255.32,135.4,255.32z"/>
	<path d="M248.8,216.12c6.74,2.11,12.22,7.17,12.22,18.97c0,12.22-7.59,17.7-12.65,18.97c-2.95,0.84-4.64,0.84-8.01,0.84h-10.96
		v-39.63h8.85C242.05,215.27,245.85,215.27,248.8,216.12z M249.64,225.39c-1.69-2.95-4.22-3.79-8.01-3.79h-4.22v26.98h5.06
		c1.26,0,2.53,0,4.64-1.26c2.11-1.26,4.64-3.79,4.64-11.38C252.17,231.29,251.33,227.92,249.64,225.39z"/>
	<path d="M293.48,254.9l-3.37-9.7h-13.49l-3.37,9.7h-8.43l14.75-39.63h8.85l13.91,39.63H293.48z M283.79,222.86
		c-0.42,2.11-4.22,13.91-4.64,16.02h9.27C287.58,236.35,284.21,224.97,283.79,222.86z"/>
	<path d="M330.58,216.12c6.74,2.11,12.22,7.17,12.22,18.97c0,12.22-7.59,17.7-12.65,18.97c-2.95,0.84-4.64,0.84-8.01,0.84h-10.96
		v-39.63h8.85C323.83,215.27,327.63,215.27,330.58,216.12z M331.42,225.39c-1.69-2.95-4.22-3.79-8.01-3.79h-4.22v26.98h5.06
		c1.26,0,2.53,0,4.64-1.26c2.11-1.26,4.64-3.79,4.64-11.38C333.95,231.29,333.11,227.92,331.42,225.39z"/>
	<path d="M353.76,254.9v-39.63h24.87l-1.26,6.32h-15.6v9.27h13.07v6.74h-13.07v10.54h17.28v6.74
		C379.05,254.9,353.76,254.9,353.76,254.9z"/>
	<path d="M183.46,251.1c-2.53,2.11-6.32,3.79-11.8,3.79c-7.17,0-11.8-2.53-13.91-5.9c-1.26-2.11-1.69-4.22-1.69-8.43v-26.14h8.43
		v24.87c0,2.53,0,4.22,0.84,5.48c0.84,2.11,3.37,3.37,6.74,3.37c2.53,0,4.64-0.84,5.9-2.11c0.84-1.26,1.69-2.53,1.69-6.32v-24.87
		h8.43v25.71C186.83,246.89,185.99,249,183.46,251.1z"/>
	<path d="M70.91,221.6H56.57v9.27h11.8v6.74h-11.8v17.28h-8.43v-39.63h23.61L70.91,221.6z"/>
	<path d="M102.94,254.9l-3.37-9.7H86.08l-3.37,9.7h-8.43l14.75-39.63h8.85l13.91,39.63H102.94z M92.83,222.86
		c-0.42,2.11-4.22,13.91-4.64,16.02h9.7C96.62,236.35,93.25,224.97,92.83,222.86z"/>
	<path d="M218.87,254.9h-23.18v-39.63h8.43v32.88h16.02L218.87,254.9z"/>
</g>
<g>
	<path d="M381.16,74.06l-5.9-15.6h-22.34l-5.48,15.6h-14.33l24.45-65.76h15.18l23.18,65.76H381.16z M364.72,20.94
		c-0.84,3.79-6.74,22.76-8.01,26.98h16.02C371.47,43.7,365.56,24.73,364.72,20.94z"/>
	<path d="M323.41,18.83h-24.03v15.6h19.39v10.96h-19.39v28.66h-13.49V8.29h39.63L323.41,18.83z"/>
	<path d="M414.46,66.89c-6.32-6.32-9.27-14.75-9.27-25.71c0-21.5,11.8-34.15,31.19-34.15c10.54,0,18.13,3.37,24.03,10.12
		c4.64,5.48,7.59,13.49,7.59,23.61c0,10.54-2.53,18.13-7.17,24.03c-5.48,6.74-12.65,10.12-23.61,10.12
		C427.11,75.32,419.94,72.37,414.46,66.89z M450.3,55.51c1.26-3.79,1.69-8.01,1.69-14.33c0-7.17-0.84-12.22-2.53-16.02
		c-2.53-5.48-7.17-8.01-13.49-8.01c-5.9,0-10.54,2.53-12.65,7.17c-2.11,3.79-2.95,9.27-2.95,16.44c0,8.01,1.26,14.33,3.37,18.13
		c2.53,4.22,6.74,5.9,12.65,5.9C443.13,65.2,447.77,62.25,450.3,55.51z"/>
</g>
<rect x="239.52" y="113.68" width="228.05" height="54.8"/>
<g>
	<path d="M412.36,342.16v-39.63h8.43v39.63H412.36z"/>
	<path d="M389.17,343c-6.74,0-11.38-2.11-14.75-5.9c-3.37-3.79-5.06-8.01-5.06-14.33c0-8.01,2.53-13.49,8.01-17.28
		c3.37-2.11,7.17-3.37,11.8-3.37c5.06,0,9.7,1.69,13.91,4.22l-4.22,5.06c-2.95-2.11-5.48-2.95-9.27-2.95
		c-4.64,0-8.01,1.69-9.27,5.48c-0.84,2.53-1.26,5.48-1.26,9.27c0,6.32,1.26,10.12,4.22,11.8c1.69,1.26,4.22,1.69,6.74,1.69
		c2.11,0,3.79-0.42,5.06-0.84v-8.85h-7.17l-1.26-6.32h16.86v18.97C398.87,341.74,394.23,343,389.17,343z"/>
	<path d="M458.73,342.16l-3.37-9.7h-13.49l-3.37,9.7h-8.43l14.75-39.63h8.85l13.91,39.63H458.73z M448.61,310.12
		c-0.42,2.11-4.22,13.91-4.64,16.02h9.7C452.4,323.61,449.03,312.23,448.61,310.12z"/>
	<path d="M36.76,338.36c-3.79-3.79-5.48-8.85-5.48-15.18c0-12.65,7.17-20.66,18.55-20.66c6.32,0,10.96,2.11,14.33,5.9
		c2.95,3.37,4.64,8.01,4.64,14.33s-1.26,10.96-4.22,14.33c-3.37,3.79-7.59,5.9-14.33,5.9C44.35,343,39.71,341.31,36.76,338.36z
		 M57.84,331.2c0.84-2.11,0.84-4.64,0.84-8.43c0-4.22-0.42-7.17-1.69-9.7c-1.69-3.37-4.22-4.64-8.01-4.64
		c-3.37,0-6.32,1.69-7.59,4.22c-1.26,2.53-1.69,5.48-1.69,9.7c0,5.06,0.84,8.43,2.11,10.96c1.26,2.53,4.22,3.37,7.59,3.37
		C54.04,337.1,56.57,335.41,57.84,331.2z"/>
	<path d="M246.69,338.36c-3.79-3.79-5.48-8.85-5.48-15.18c0-12.65,7.17-20.66,18.55-20.66c6.32,0,10.96,2.11,14.33,5.9
		c2.95,3.37,4.64,8.01,4.64,14.33s-1.26,10.96-4.22,14.33c-3.37,3.79-7.59,5.9-14.33,5.9C254.28,343,250.06,341.31,246.69,338.36z
		 M268.19,331.2c0.84-2.11,0.84-4.64,0.84-8.43c0-4.22-0.42-7.17-1.69-9.7c-1.69-3.37-4.22-4.64-8.01-4.64
		c-3.37,0-6.32,1.69-7.59,4.22c-1.26,2.11-1.69,5.48-1.69,9.7c0,5.06,0.84,8.43,2.11,10.96c1.26,2.53,4.22,3.37,7.59,3.37
		C263.97,337.1,266.92,335.41,268.19,331.2z"/>
	<path d="M328.47,338.36c-3.79-3.79-5.48-8.85-5.48-15.18c0-12.65,7.17-20.66,18.55-20.66c6.32,0,10.96,2.11,14.33,5.9
		c2.95,3.37,4.64,8.01,4.64,14.33s-1.26,10.96-4.22,14.33c-3.37,3.79-7.59,5.9-14.33,5.9C336.06,343,331.84,341.31,328.47,338.36z
		 M349.97,331.2c0.84-2.11,0.84-4.64,0.84-8.43c0-4.22-0.42-7.17-1.69-9.7c-1.69-3.37-4.22-4.64-8.01-4.64
		c-3.37,0-6.32,1.69-7.59,4.22c-1.26,2.11-1.69,5.48-1.69,9.7c0,5.06,0.84,8.43,2.11,10.96c1.26,2.53,4.22,3.79,7.59,3.79
		C345.75,337.1,348.7,335.41,349.97,331.2z"/>
	<path d="M236.57,309.7h-10.54v32.88h-8.43V309.7h-10.96v-6.74h31.19L236.57,309.7z"/>
	<path d="M97.04,303.8c6.74,2.11,12.22,7.17,12.22,18.97c0,12.22-7.59,17.7-12.65,18.97c-2.95,0.84-4.64,0.84-8.01,0.84H77.65
		v-39.63h8.85C90.3,302.95,94.09,302.95,97.04,303.8z M97.88,313.07c-1.69-2.95-4.22-3.79-8.01-3.79h-4.22v26.98h5.06
		c1.26,0,2.53,0,4.64-1.26c2.11-0.84,4.64-3.79,4.64-11.38C100.41,318.97,99.57,315.6,97.88,313.07z"/>
	<path d="M312.03,342.58h-22.76v-39.63h8.43v32.88h16.02L312.03,342.58z"/>
	<path d="M124.02,338.36c-3.79-3.79-5.48-8.85-5.48-15.18c0-12.65,7.17-20.66,18.55-20.66c6.32,0,10.96,2.11,14.33,5.9
		c2.95,3.37,4.64,8.01,4.64,14.33s-1.26,10.96-4.22,14.33c-3.37,3.79-7.59,5.9-14.33,5.9C131.61,343,127.39,341.31,124.02,338.36z
		 M145.52,331.2c0.84-2.11,0.84-4.64,0.84-8.43c0-4.22-0.42-7.17-1.69-9.7c-1.69-3.37-4.22-4.64-8.01-4.64
		c-3.37,0-6.32,1.69-7.59,4.22c-1.26,2.11-1.69,5.48-1.69,9.7c0,5.06,0.84,8.43,2.11,10.96c1.26,2.53,4.22,3.79,7.59,3.79
		C141.3,337.1,144.25,335.41,145.52,331.2z"/>
	<path d="M186.83,342.58l-9.7-18.13c-2.11-3.79-4.22-8.43-4.64-10.12c0,2.53,0.42,7.17,0.42,10.96l0.42,17.28h-8.01v-39.63h9.27
		l10.12,18.13c2.11,3.79,3.37,7.17,4.22,9.27c0-2.11-0.42-6.32-0.42-10.12v-16.86h7.17V343h-8.85V342.58z"/>
</g>
</svg>
