<?xml version="1.0" encoding="utf-8"?>
<!-- Generator: Adobe Illustrator 23.0.1, SVG Export Plug-In . SVG Version: 6.00 Build 0)  -->
<svg version="1.1" id="Layer_1" xmlns="http://www.w3.org/2000/svg" xmlns:xlink="http://www.w3.org/1999/xlink" x="0px" y="0px"
	 width="340px" height="156px" viewBox="0 0 340 156" style="enable-background:new 0 0 340 156;" xml:space="preserve">
<style type="text/css">
	.st0{fill-rule:evenodd;clip-rule:evenodd;}
</style>
<g>
	<path class="st0" d="M8.1,69.5V37.4c0-3-2.5-3.8-4.9-4.1v-2.8h19.6v2.8c-2.5,0.2-4.6,1-4.6,4V69c0,10.7,6.8,15.2,15.7,15.2
		c16.3,0,16.3-12.7,16.3-24.4V45.9c0-9.9-0.8-12.2-5.9-12.5v-2.8h16.5v2.8c-3,0.3-5.1,1.8-5.1,8.1v23.7C55.6,78.7,49.1,89,32,89
		C17,88.8,8.1,83.2,8.1,69.5z"/>
	<path class="st0" d="M93.3,80.7V38.3c0-3.5-2-4.8-5.6-5.1v-3.1c6.6,0.2,13,0.2,19.6,0.2c11,0,18-0.2,24.7-0.3l0.3,9.2h-3.1
		c-1.6-4.8-4.8-5.4-13.4-5.4h-12.5v22.1h11c4.8,0,7.4,0,8.1-4h2.3v11.4h-2.5c-0.8-3.1-3-3.6-8.1-3.6h-11v18.6c0,5.8,2.3,7.3,7.1,7.4
		v2.8H87.4v-2.8C91.4,85.5,93.3,84.3,93.3,80.7z"/>
	<path class="st0" d="M332.7,71.5v3.8v11c-5.8,1.5-13.5,3.5-21.9,3.5c-18.8,0-32.1-13.2-32.1-29.7c0-18.8,14.5-30.5,32.8-30.5
		c3.1,0,5.4,0.3,11,1c1.5,0.2,9.1,1.6,10.7,2l0.8,10.7h-3.8c-2.6-5.3-6.4-10.1-16.5-10.1c-12.7,0-23.6,7.7-23.6,26.4
		c0,10.9,6.1,26.2,24.7,26.2c3,0,5.6-0.7,8.2-1.8c0-1,0.2-7.4,0.2-9.1c0-5.1-0.7-7.4-4.8-8.1v-3h18.3v2.8
		C333.7,67,332.7,68.2,332.7,71.5z"/>
	<path class="st0" d="M253.4,71.3c-2,2-8.7,7.9-11,7.9c-0.8,0-2-0.5-2-1.5c0-1.3,1.2-4,1.8-5.9l10.2-29.7c0.7-1.8,1.3-4.1,1.3-6.3
		c0-2.8-1.2-5.1-5.1-5.1c-12,0-31,21.3-37.9,29.8h-0.3l6.1-19c0.8-2.3,1.3-4.8,1.3-6.8c0-2.5-1.8-4.1-5.8-4.1
		c-11.2,0-30,20.9-36.1,29.7h-0.2l6.6-19.1c0.5-1.5,1.3-4,1.3-6.1c0-2.5-1.3-4.5-4.3-4.5c-8.4,0-17.3,10.1-22.1,16.2
		c0,0-1.3,1.5-0.3,2.3c1.2,1,2.1,0,2.1,0l3.5-3.8c2.3-2.3,4.8-4.5,7.4-4.5c1.5,0,2,1.2,2,2.5c0,1.2-0.3,2.5-0.5,3.1l-13.2,39.9
		c-0.3,1.5,2.5,2.1,3.6,2.1c3.1,0,4.6-1,5.1-2l2.3-6.6c3.5-9.6,8.9-18.3,15.8-25.9c4.1-4.5,11.7-13.4,18.5-13.4
		c1.8,0,2.5,1.5,2.5,3.1c0,3.3-1.8,8.1-2.1,9.4l-11,33.1c-0.2,1,0.8,2.5,4.3,2.5c3.1,0,4.1-1.2,4.5-2.3l2.1-5.1
		c3.5-9.1,7.1-15.7,13-23.1c4.1-4.9,15.7-17.8,22.3-17.8c1.3,0,3,1,3,3c0,1.3-0.8,3.5-1.3,5.3l-10.2,29.3c-0.8,2.5-1.5,4.6-1.5,5.9
		c0,3.3,2.3,4.3,4.6,4.3c6.9,0,12.9-5.8,17.8-11.2l4-4.3c0,0,1.2-1.2,0-2C254.2,70.5,253.4,71.3,253.4,71.3z"/>
	<rect x="159.1" y="105.3" width="87.7" height="21.1"/>
</g>
</svg>
