<?xml version="1.0" encoding="utf-8"?>
<!-- Generator: Adobe Illustrator 16.0.0, SVG Export Plug-In . SVG Version: 6.00 Build 0)  -->
<!DOCTYPE svg PUBLIC "-//W3C//DTD SVG 1.1//EN" "http://www.w3.org/Graphics/SVG/1.1/DTD/svg11.dtd">
<svg version="1.1" id="Layer_1" xmlns="http://www.w3.org/2000/svg" xmlns:xlink="http://www.w3.org/1999/xlink" x="0px" y="0px"
	 width="500px" height="500px" viewBox="0 0 500 500" enable-background="new 0 0 500 500" xml:space="preserve">
<path fill="#2F2415" d="M118.83,292.076h266.476v1.389v2.314v1.391v1.859h-1.868H118.83V292.076z M159.972,283.27H343.7v6.482
	H160.443L159.972,283.27z M145.018,276.777h213.646v3.705H145.018V276.777z M170.727,267.508h162.22l0.472,6.492H170.255
	L170.727,267.508z M160.443,261.018H343.7v4.176H160.443V261.018z M300.69,192.418l32.727,0.463l-0.471,65.357H300.69V196.13
	V192.418z M170.727,192.881h32.255c0,7.417,0.472,63.043-0.463,65.82l-31.792-0.463V192.881L170.727,192.881z M205.321,211.883
	h93.03v46.818l-93.03-0.463V211.883L205.321,211.883z M266.096,189.64h22.906l-0.463,19.465h-22.443V189.64z M240.379,189.64h22.914
	l-0.472,19.465h-22.442V189.64z M215.142,189.64h22.436v19.465H214.67L215.142,189.64z M337.153,185.464l0.473,0.463
	c0,1.397,0,2.787,0,4.639l-41.143-0.463c-0.472-1.389-0.472-3.242,0-4.639c3.273-0.463,28.981,0,36,0
	C333.88,185.464,336.22,185.001,337.153,185.464L337.153,185.464z M166.519,190.103v-4.639h40.67c0.472,1.397,0.472,3.25,0,5.102
	c0,0-37.396,0.463-39.735,0C166.519,190.103,166.99,190.565,166.519,190.103L166.519,190.103z M300.69,183.148
	c0.463-1.389,0.463-0.926,0.936-1.853l11.218-12.982c0.934-1.389,2.81-3.705,4.207-4.63c0.935,0.926,3.272,3.241,4.208,4.63
	c1.868,2.324,11.226,12.982,12.158,14.834L300.69,183.148L300.69,183.148z M170.255,183.148c0.934-1.389,6.547-8.343,8.415-10.196
	c0.934-1.389,2.811-2.778,3.745-4.639c1.396-1.389,3.272-3.705,4.208-4.63l1.396,0.926c2.339,3.242,14.028,16.687,14.962,18.539
	H170.255L170.255,183.148z M158.104,267.045l9.82,0.463v5.564c0,0.928,0,0.928,0,0.928c-3.744,0-22.906-0.463-24.782,0.463
	c-0.934,1.389-0.934,6.953,0,8.344c1.876,1.39,11.227,0,14.491,0.463v6.482c-6.076,0.934-38.803-1.389-41.134,0.471
	c-0.472,0.926-0.936,9.271,0,11.121c1.868,0.465,268.344,0.465,270.675,0c0.941-0.926,0.941-10.658,0-11.121
	c-2.812-1.858-34.124,0.463-41.135-0.471v-6.482c3.273-0.463,12.623,0.927,14.491-0.463l0.463-0.465
	c0-1.396,0.472-6.953-0.463-7.879c-1.868-1.391-20.104,0.463-24.782-0.463c0-0.928,0-1.861,0-3.25c0-0.926,0-2.316,0.472-2.779
	c2.339-1.389,7.01,0.463,9.35-0.926c0.935-1.852,0.935-6.49,0-7.881c-1.868-1.389-7.011-0.463-9.819-0.463v-66.283h3.743
	c0.936-1.853,0.463-7.417,0-9.27c-3.743-0.926-1.404,1.389-6.547-4.631c-1.405-1.86-14.962-18.076-15.896-18.076
	c-0.935,0-15.896,17.613-18.698,20.854c-1.405,2.315-1.405,1.39-3.735,1.853c-0.936,2.315-0.936,7.417,0,9.27l3.735,0.463v16.224
	h-7.01v-21.78c-4.208-0.926-32.727,0-39.273,0c-5.143,0-37.397-0.926-39.266,0.463c-1.405,1.853,0,17.613-0.471,21.317h-7.011
	v-16.224l4.208-0.463c0.464-1.853,0.464-7.417,0-9.27c-4.679-0.926-0.934,1.853-6.547-4.631c-1.867-2.323-3.735-4.176-5.604-6.491
	c-0.942-1.389-9.82-11.585-10.754-11.585c-1.405,0.463-4.208,4.167-5.613,5.557l-12.623,15.761
	c-1.868,1.852-1.868,0.926-4.208,1.389c-0.463,1.853-0.463,7.417,0,9.27l3.744,0.463v65.357l-9.82,0.463
	C157.633,260.092,157.169,265.656,158.104,267.045L158.104,267.045z"/>
<path fill="#2F2415" d="M277.784,154.414c1.396,0.463,1.867,0.463,1.867,2.778h-1.404c0-0.463,0,0-0.463-0.926V154.414z
	 M275.445,156.266c-2.803-2.778-2.803-1.389-3.272-3.705c-0.936-3.25-0.936-0.934-1.868-2.786c-0.472-0.926,0-4.631,0.934-5.557
	c2.341,5.557,2.804,2.778,2.804,5.557C274.511,152.099,275.445,153.488,275.445,156.266L275.445,156.266z M255.813,135.875
	c-1.404-0.926-4.207-1.389-5.142-2.323c-1.876-2.315,0.463-4.168,2.331-8.344c1.405-1.852,3.272-4.167,4.679-6.02
	c0.936,2.315,3.273,5.557,2.802,7.88c-2.33,1.389-2.33,0-3.735,3.242c-0.935,2.778-1.867,9.732,2.803,10.659
	c4.207,0.926,3.273-0.463,5.142-1.853c0.473,3.713-2.339,6.028-0.935,11.122c1.406,5.102,0,6.491-2.339,9.74
	c-1.868,2.315-5.604,5.094-1.868,8.335c5.142,4.176,7.48-2.778,7.952-2.778c1.396,0.926,3.266,2.315,5.604,1.389
	c1.868-1.389,0.936-1.852,1.405-3.705c0.935-2.315,1.405-2.315,1.405-4.639c7.943,3.712,7.01-3.242,4.671-5.557
	c-1.405-1.397-1.405-1.397-0.463-3.712c0,0.463,1.868,4.639,2.331,6.028c0.935,1.853,0.935,6.028,1.404,6.954
	c1.868,1.39,0.936,0,3.273-0.463c0.935,0.463,7.48,9.27-0.936,19.465c-0.934,1.39-1.403,2.315-4.206,2.315h-46.756
	c-7.943,0-21.038,2.315-19.161-7.417c0.463,0,3.272-0.463,3.272-3.705c0.463-2.315-1.405-2.778-2.81-3.712
	c-1.869-1.39-2.804-7.873,1.867-9.733c-0.934,6.028,0.472,7.417,3.273,10.204c2.811,2.779,0.471,4.168,5.142,9.27
	c4.68,4.631,6.548-0.463,10.754,1.853c2.804,1.389,2.34,1.389,5.613,1.389c9.813,0,27.114,1.389,33.661-1.389
	c13.086-5.565,8.878-16.224,5.604-15.761c-0.936,0-11.688,12.048-23.369,6.954c-4.68-2.315-7.48-5.102-2.812-8.806
	c5.613-4.176,5.613-4.639,5.143-11.13c0-5.094-2.331-4.631-4.208-6.946C255.342,142.829,255.813,139.116,255.813,135.875
	L255.813,135.875z M253.002,137.727c0,3.705,0.471,6.491,2.34,8.807c3.272,3.242,3.744,1.389,3.744,7.88s-10.754,6.954-7.48,13.9
	c4.207,8.343,17.765,9.278,27.576,1.397c1.405-0.463,2.339-1.86,3.744-2.324c0.935,4.176-0.934,6.491-3.273,8.807
	c-1.867,1.397-5.611,3.25-9.349,3.25c-8.415,0-17.302,0-25.717,0c-7.944,0-5.143-2.787-10.284-2.323
	c-1.397,0.471-5.142,2.786-7.944-3.242c-0.471-1.852-0.934-3.241-1.404-4.631c-0.935-1.397-2.34-2.323-3.273-3.25
	c-3.737-5.094,1.405-6.954,0.471-9.269c-4.208-1.853-8.416,2.315-8.886,5.102c-0.463,1.853-0.463,5.557,0,6.946
	c0.935,2.786,3.744,1.397,3.744,4.639c-2.339,0.463-3.744,0.463-3.744,4.176c0.471,9.732,10.283,8.335,15.896,8.335
	c3.272,0,54.698,0.471,56.104-0.463c3.273-1.389,8.415-9.27,7.473-16.687c0-2.315-0.934-4.631-1.867-6.483
	c-0.935-2.315-1.868-2.786-5.143-2.786c0-3.705-0.934-5.557-2.339-8.343c-0.935-1.853-0.935-7.409-2.332-8.335
	c-1.405-0.471-1.876,2.315-3.744,5.557c0,0.926,0,1.39-0.463,2.315c-0.935-6.483-1.877-2.778-3.272-6.483
	c-1.405-4.639,0.463-6.491-1.868-7.88c-1.405,0.463-1.405,0.926-1.877,2.778c-0.463,1.39-0.935,2.315-1.396,3.713
	c-1.869,6.946-0.472,7.409,0.935,10.195c2.34,4.168,1.867,1.853,3.272,4.168c1.868,2.315-0.471,4.176-0.471,7.417
	c-4.671-0.463-3.273-3.241-5.605-3.705c-1.876,1.389-0.471,3.705-3.272,6.02c-1.876,0-1.876-0.463-2.812-1.389
	c0-3.705,7.481-6.028,6.084-14.371c-0.94-4.631-0.94-4.168,0-8.807c0.464-1.389,1.397-8.343,0.936-9.27
	c-2.339-1.389-2.339,0.463-3.273,1.86c-0.472,1.389-1.876,2.778-2.811,3.705c-1.868,0-2.331,0-2.803-1.852
	c-1.868-7.88,4.679-6.028,4.679-10.196c0-2.787-3.744-7.417-3.273-10.667c0-1.39,0.463-3.242-2.339-2.315
	c-2.339,0.926-0.935,3.241-3.745,6.028c-1.396,1.389-2.802,4.167-3.735,6.028c-1.404,2.315-3.273,3.705-2.34,7.409
	C248.332,135.875,250.671,136.801,253.002,137.727L253.002,137.727z"/>
<path fill="#302716" d="M207.661,459.859l3.735,0.463l1.869-12.047c0.471-1.39,0.471-2.787,1.405-4.177l0.934,14.371
	c0,2.779,0.472,2.314,2.804,2.779l5.142-16.225l-0.934,16.688l3.272,0.463l0.934-26.883c-4.208,0-2.802-1.852-5.604,7.418
	c-0.934,2.777-3.273,8.805-3.273,10.658l-1.404-19.002l-3.273-0.463L207.661,459.859z"/>
<path fill="#2F2415" d="M372.683,93.232c0.472-1.389-0.463-0.463,0.935-0.926l-0.463,0.926v0.463
	c-1.404,2.315-7.48,12.974-7.019,14.834l1.404,0.926c2.341-1.389,10.283-9.27,13.087-11.129l-9.813,13.908
	c0.935,0.926,1.405,1.389,2.803,1.852c2.812-3.242,5.143-7.417,7.489-10.659c1.868-3.242,5.604-8.343,6.53-11.122
	c-0.463-0.926-1.39-1.86-2.331-1.86l-14.021,12.056l8.416-16.687l-2.34-1.852l-17.765,19.002l2.332,2.315
	C364.738,102.965,369.408,96.011,372.683,93.232L372.683,93.232z"/>
<path fill="#302617" d="M323.126,204.474h3.272v42.18h-3.272V204.474z M320.323,207.252c0,5.102-0.934,39.864,0.473,41.253
	c1.396,0.927,4.67,0.463,6.074,0.463c2.804,0,1.868-1.852,1.868-4.175c0-12.511,0.473-30.587,0-42.18
	c-1.868-0.463-4.67-0.926-6.547-0.463C319.86,202.614,320.323,204.474,320.323,207.252L320.323,207.252z"/>
<path fill="#302617" d="M177.273,204.474h3.736v42.18h-3.736V204.474L177.273,204.474z M182.878,248.505
	c0,0,0.471-0.926,0.471-1.389c0.463-5.102,0-32.447,0-39.401c0-6.491,0.463-5.565-3.745-5.565c-5.604,0-4.67-1.389-4.67,9.27
	c0,5.565-0.471,36.623,0.471,37.085C177.273,249.432,181.481,249.432,182.878,248.505L182.878,248.505z"/>
<path fill="#312415" d="M307.699,204.474h3.273v42.18l-3.273-0.471V204.474z M305.361,202.614c-0.463,2.786,0,36.623,0,42.643
	c0,3.712-0.463,3.712,3.744,3.712c5.605,0,4.671,1.854,4.671-10.195V205.4c0-1.86,0-2.786-0.934-3.25
	C311.907,201.688,305.831,202.15,305.361,202.614L305.361,202.614z"/>
<path fill="#2F2415" d="M192.699,204.474l3.272,0.463v41.716h-3.272V204.474z M198.312,202.614c-1.404-0.463-7.018-0.926-7.48,0
	c-0.935,0.926-0.472,6.028-0.472,7.417v31.521c0,1.852-0.935,6.491,0.472,7.417c1.396,0.464,6.547,0.464,7.48-0.463
	c0.935-0.926,0.463-10.195,0.463-11.592C198.774,231.356,199.246,204.011,198.312,202.614L198.312,202.614z"/>
<path fill="#312415" d="M389.521,131.236c0.463,0.926,0.926,1.389,1.868,2.315c4.199-2.315,11.209-9.733,14.962-12.511
	c-1.405,2.315-4.216,6.491-5.621,8.807c-1.405,2.315-5.142,6.491-5.604,8.806l1.867,1.853l14.962-12.048
	c1.868-1.389,3.736-2.778,5.605-4.639c-0.927-0.926-0.927-1.852-2.332-2.315c-4.215,2.315-12.631,10.659-14.035,11.585
	c1.884-3.705,10.299-13.437,10.762-16.224c-0.94-0.926-1.404-1.852-2.347-2.315l-10.284,8.344
	C397.456,124.282,390.447,129.847,389.521,131.236L389.521,131.236z"/>
<path fill="#2F2415" d="M41.696,269.824v3.713c5.143-0.465,18.699-2.787,18.699-2.787l-17.765,7.881v3.248l26.18-2.785v-3.705
	c-6.076,0.463-19.169,3.242-20.104,3.242l19.17-8.807v-2.779C65.074,266.582,45.904,269.361,41.696,269.824L41.696,269.824z"/>
<path fill="#312415" d="M265.162,439.006c3.272,0,3.735,0.926,3.735,4.168c0.472,2.785,0,4.176-2.803,4.64L265.162,439.006z
	 M261.417,436.219c-0.463,3.25,2.339,21.789,2.811,26.42l3.736-0.463l-1.868-12.512c1.405,0.926,5.613,9.732,6.547,12.049
	l3.273-0.463c0.463-0.928,0.463,0.463,0-1.391c0-0.463-0.472-1.39-0.942-1.853l-4.67-8.807c0,0,0-0.463,0,0
	c0.463,0,4.67-3.713,1.868-10.195C270.304,434.367,266.096,435.756,261.417,436.219L261.417,436.219z"/>
<path fill="#2F2415" d="M119.772,117.799c-1.404-0.463-1.404-0.934-2.339-1.86c-2.339-2.779-11.218-11.122-11.688-12.974
	c4.208-3.242,8.416,1.389,10.755,3.705C121.169,111.771,122.575,113.624,119.772,117.799L119.772,117.799z M100.603,102.965
	c0.935,1.389,15.425,16.687,17.766,19.465c1.867-0.926,6.547-5.094,6.547-8.806c0-2.779-4.208-7.417-5.613-9.27
	C111.82,97.4,109.018,94.622,100.603,102.965L100.603,102.965z"/>
<path fill="#2F2415" d="M74.886,140.506c2.811-4.168,7.481-1.39,11.689,1.389c6.547,4.639,7.018,5.102,5.612,9.732
	c-1.868-0.463-7.01-4.167-8.886-5.094C80.499,144.681,77.225,142.829,74.886,140.506L74.886,140.506z M70.215,141.895
	c0.934,1.397,21.038,13.908,22.443,14.371c1.396-2.315,4.671-6.491,3.266-10.196c-0.934-2.778-5.142-5.564-7.481-7.417
	c-2.332-1.389-7.01-4.167-10.747-3.705C74.423,134.949,71.149,139.58,70.215,141.895L70.215,141.895z"/>
<path fill="#2F2415" d="M87.98,383.844c1.405-1.389,14.491-12.512,14.962-12.975c4.208,3.705-1.876,8.807-3.745,10.66
	C96.858,383.381,89.848,388.945,87.98,383.844L87.98,383.844z M82.838,383.381c6.547,8.344,10.284,7.881,18.228,0.926
	c8.887-7.408,8.887-10.658,1.876-18.076C100.603,367.621,86.575,380.602,82.838,383.381L82.838,383.381z"/>
<path fill="#302515" d="M202.519,59.859c0.463,1.852,0.935,4.631,0.935,7.417c0,2.779-0.935,3.242-3.745,4.168l-5.143-19.928
	C199.708,50.589,201.114,54.757,202.519,59.859L202.519,59.859z M190.359,49.663l6.547,25.493
	c10.755-1.389,11.688-6.028,8.887-16.224C203.453,49.663,200.643,46.414,190.359,49.663L190.359,49.663z"/>
<path fill="#302515" d="M315.652,76.545c0-1.852,4.208-11.593,5.144-14.834l2.331-4.167c5.148,1.853,2.339,7.88,0.941,12.048
	C321.729,75.156,319.86,77.472,315.652,76.545L315.652,76.545z M310.974,77.472c2.803,1.852,7.952,3.705,11.218,1.852
	c2.812-1.852,8.887-15.297,7.02-20.391c-0.936-2.778-5.143-5.102-8.415-5.565L310.974,77.472z"/>
<path fill="#302515" d="M51.045,195.667c0.471-3.25,1.405-3.25,4.679-2.323c2.803,0.926,3.737,1.397,3.737,4.175
	C58.056,197.983,51.979,196.13,51.045,195.667L51.045,195.667z M46.838,197.983l25.246,7.417l1.404-3.25l-12.622-3.705
	c9.812-1.852,14.02,1.853,14.962-4.639l-13.558,0.934c-0.941-1.397-2.339-6.028-9.356-5.565
	C48.706,189.176,47.772,194.27,46.838,197.983L46.838,197.983z"/>
<path fill="#2F2415" d="M322.662,425.098c2.803,0.463,13.086,16.224,5.143,18.539c-1.405-3.242-3.273-6.955-5.143-10.194
	C319.86,427.412,317.521,423.709,322.662,425.098L322.662,425.098z M314.711,424.172l11.226,23.641
	c3.273-0.463,7.01-3.25,7.943-5.563c2.34-4.631-4.207-18.076-8.415-19.93C321.729,420.004,317.984,422.781,314.711,424.172
	L314.711,424.172z"/>
<path fill="#302515" d="M240.379,44.562c3.272,0,3.744,0.926,3.744,4.639c0,2.778-0.472,3.705-3.744,4.167V44.562z M237.114,67.739
	l3.736,0.463V54.757l5.143,12.982h3.743l-5.148-12.52c1.405-1.389,2.339-1.389,3.272-3.705c0.473-1.853,0.473-4.639-0.464-6.491
	c-0.934-4.167-5.141-3.705-10.283-3.241L237.114,67.739L237.114,67.739z"/>
<path fill="#302515" d="M448.41,240.625h8.416c0,3.242-0.927,3.705-4.199,3.705C449.816,244.33,447.485,243.404,448.41,240.625
	L448.41,240.625z M433.466,237.376v3.713h7.936h4.679l-12.613,5.094l0.463,3.712l12.15-5.102l0.464,0.463l1.404,1.397
	c2.349,1.852,6.547,1.852,8.879,0.926c4.216-1.397,3.752-8.343,2.811-10.667C451.222,237.376,441.881,237.376,433.466,237.376
	L433.466,237.376z"/>
<path fill="#302515" d="M243.189,451.516c2.804-0.463,3.736,1.392,3.736,4.177c0,3.241-0.934,4.631-4.207,4.631L243.189,451.516z
	 M243.653,439.932c2.811-0.463,3.744,1.39,3.744,4.168c0,2.787-0.934,4.177-4.207,4.64L243.653,439.932z M247.86,450.59
	c-0.935-0.463-0.464,0-0.935-0.463l0.471-0.463c4.209-1.389,3.274-7.881,2.804-9.732c-1.404-3.25-5.612-3.713-9.82-3.25
	l-0.935,26.42c4.208,0,8.888,0.935,10.291-2.778C251.134,456.619,251.134,451.516,247.86,450.59L247.86,450.59z"/>
<path fill="#302515" d="M296.012,454.766c-3.736,0.927-5.142-3.713-6.539-7.416c-0.471-2.323-2.81-10.196-0.471-12.057
	C293.681,432.051,297.889,450.59,296.012,454.766L296.012,454.766z M288.068,432.051c-5.143,2.316-3.272,10.66-1.868,15.762
	c1.396,5.095,3.736,12.048,10.283,9.732c5.612-1.854,3.736-10.658,1.868-15.297C297.417,437.152,294.615,429.736,288.068,432.051
	L288.068,432.051z"/>
<path fill="#312415" d="M442.807,206.789c0-1.852-0.463-4.639-1.868-6.028l-2.331,0.463l0.463,2.787
	c-2.331,1.854-6.084,1.854-8.878,0.463c-0.479-4.175,4.662-5.102,8.415-6.491c3.736-0.926,8.415-2.778,11.688-0.463
	c0.463,2.779-0.479,2.779-1.886,4.168c0,0.926,0.942,2.323,1.886,2.786c5.604-2.323,7.473-18.076-16.367-8.806
	c-4.216,1.852-9.357,5.094-6.084,10.659C431.117,211.42,438.607,207.715,442.807,206.789L442.807,206.789z"/>
<path fill="#2F2415" d="M45.441,294.854l0.463,3.242c7.952-0.463,23.377-7.873,24.313-2.779c0.463,3.714-7.01,4.177-10.284,5.103
	c-4.208,0.927-8.886,1.854-12.623,2.779l0.463,2.776c2.339,0.465,11.689-2.313,14.962-3.24c5.143-0.926,11.688-1.391,10.754-7.881
	c-1.404-6.489-7.018-4.631-12.622-3.705C55.724,292.539,50.111,293.465,45.441,294.854L45.441,294.854z"/>
<path fill="#2F2415" d="M382.975,381.529c1.868-2.316,9.82,5.102,7.936,6.953C388.578,390.799,381.106,383.844,382.975,381.529
	L382.975,381.529z M393.258,388.945l4.198,11.123c0.942-0.465,0.479,0,1.405-0.928c0-0.464,0.942-0.927,0.942-1.39
	c0.926-1.853-2.812-9.271-3.753-10.658c-1.868-3.25-6.53-8.807-10.746-9.27c-3.273-0.464-5.604,1.852-6.084,3.704
	c-1.397,4.64,6.084,10.658,8.415,11.121C391.853,394.047,392.315,391.262,393.258,388.945L393.258,388.945z"/>
<path fill="#2F2415" d="M226.822,149.312c0.942,1.389,0.942,1.853,2.34,2.787c0.934,0.926,3.272,1.389,3.744,1.852
	c2.331,2.315-0.941,4.631,4.671,6.028c0.471,4.168,0.934,8.335-2.34,10.196c-4.208,2.315-8.415,0.926-6.539-2.787
	c0.935-1.389,1.868-1.852,2.331-4.167c0.472-2.315,0-4.176-0.934-5.565C227.765,153.951,224.491,155.34,226.822,149.312
	L226.822,149.312z M227.765,143.292c-0.942,0.463-4.216,6.946-4.216,8.807c-0.463,4.631,3.745,3.705,4.679,7.409
	c1.868,5.102-2.802,5.102-2.339,9.74c0,1.853,1.405,3.242,2.339,4.168c1.405,0.926,3.273,0.463,5.143,0
	c7.01-1.389,7.48-6.491,7.01-12.048c-0.463-3.25-0.463-2.787-2.803-3.713c-2.803-1.389,0.471-4.167-5.613-6.954
	C226.359,148.386,231.964,141.432,227.765,143.292L227.765,143.292z"/>
<path fill="#312415" d="M261.889,59.859c0-2.315,2.339-11.585,3.273-13.445l0.463,13.445H261.889z M256.275,67.739h3.273
	l1.405-4.639h5.142l0.471,5.564h3.737l-3.737-26.419l-2.811-0.463C263.293,43.172,256.275,65.887,256.275,67.739L256.275,67.739z"/>
<path fill="#2F2415" d="M424.108,141.895c-0.464,0.463-4.2,3.712-5.143,4.175c-1.404,1.39-3.736,3.705-5.143,4.631l-2.331-3.705
	L424.108,141.895z M402.136,147.46c0.463,1.389,0.941,1.852,1.868,2.778l4.679-1.854c0.927,1.39,2.332,3.242,2.811,4.639
	c-1.404,0.926-2.348,1.853-3.752,3.242c0.479,1.389,0.941,2.315,1.868,3.242l19.178-19.002l-1.404-2.315L402.136,147.46z"/>
<path fill="#302617" d="M93.593,122.893c-0.935-1.39-1.405-0.926-1.876-2.315c3.745,1.389,7.481,5.102,11.226,6.491
	c-0.471,1.389-0.934,2.779-2.811,3.242L93.593,122.893z M87.046,118.262l16.83,20.854c0,0,0,0,0.463,0l0.471-0.926
	c0.463-0.463,0.935-0.463,1.405-1.389c-1.405-1.853-2.339-2.315-3.273-3.713c0.463-1.389,1.868-3.241,3.273-4.167l4.671,2.778
	c0.471-1.389,1.405-1.852,1.868-3.242c-0.935-0.926-22.436-11.593-24.313-12.056L87.046,118.262z"/>
<path fill="#2F2415" d="M440.938,266.119v-3.713c3.736,0,10.283,2.324,14.02,2.787L440.938,266.119z M432.986,260.092
	c1.868,0.463,3.753,0.463,5.143,1.389l-0.464,5.103l-5.142,0.463l-0.463,3.705l27.113-3.705v-2.778l-25.708-7.879L432.986,260.092z"
	/>
<path fill="#2F2415" d="M398.862,372.723c0.463-1.391,0.942-1.391,1.405-2.779c-0.942-0.926-1.868-1.389-2.812-2.321
	c-2.794-2.779,2.812-7.41,8.896,4.176c1.868,3.703,4.663,7.879,6.067,11.584c1.404-0.926,2.348-2.778,3.736-4.631
	c0.941-1.853,2.348-3.25,3.273-5.103l-2.795-1.389c-0.479,1.389-1.868,3.24-3.273,4.639l0,0l-2.347-4.176
	c-2.332-4.168-5.144-9.27-9.342-11.586c-6.084-2.322-10.764,4.631-7.011,8.344C395.589,370.406,397.456,372.26,398.862,372.723
	L398.862,372.723z"/>
<path fill="#302716" d="M41.233,232.282l18.698,5.094c-3.272,0.463-13.094,0.934-17.301,0.934c-2.802,0-2.339,0.926-2.339,4.168
	l26.65-3.242l0.472-2.787l-26.181-7.417V232.282z"/>
<path fill="#2F2415" d="M119.301,86.278c0.471,1.853,0,0.463,0.471,1.853c0.463,0,0.935,0.926,1.397,1.389l14.027,18.076
	c2.34-0.926,5.143-4.167,7.481-5.557c0-1.389-0.935-1.389-1.405-2.787c-1.869,0.934-3.272,2.324-5.142,3.713
	c-1.405-2.315-4.208-4.639-5.143-7.417c0.935-0.926,2.34-1.852,3.273-2.778l-1.405-2.323c-1.404,0.471-2.339,1.396-4.208,2.786
	c-0.934-0.926-3.735-4.639-4.67-5.564c0.935-1.853,3.266-2.779,4.67-4.168c-0.463-0.926-0.934-1.397-1.867-2.323
	C124.443,82.103,121.641,85.352,119.301,86.278L119.301,86.278z"/>
<path fill="#312415" d="M42.63,218.374c4.208,0.463,8.886,1.389,13.094,2.315c2.803,0.471,10.284,2.323,13.086,2.323l1.868-9.27
	l-3.265-0.463l-1.405,5.557l-8.886-1.389l0.934-5.094l-2.802-0.934l-0.936,5.102l-7.48-0.926l0.934-6.491l-3.272-0.463
	L42.63,218.374z"/>
<path fill="#2F2415" d="M101.065,403.316c1.876,2.315,4.208,3.705,6.084,6.483c1.868-0.465,2.332-1.391,2.803-2.778l-4.208-3.705
	c0.934-1.396,4.671-5.564,6.547-6.49l3.272,3.242l2.332-1.854l-3.735-3.704l5.142-5.103c1.868,0.463,2.802,2.315,4.208,3.705
	c1.868-0.464,1.405-0.927,2.802-1.853c-0.934-1.854-5.604-6.021-7.01-6.955C118.367,384.77,102.008,401.92,101.065,403.316
	L101.065,403.316z"/>
<path fill="#2F2415" d="M145.952,436.682c1.396,0.937,7.01,4.177,8.878,4.177l1.404-2.777c-1.867-0.463-4.208-1.861-5.142-2.787
	c0.463-1.389,2.802-6.481,3.736-7.418c1.867,0.465,3.272,1.398,5.142,1.861l0.935-2.324l-4.671-2.777l3.273-6.491l5.604,2.786
	l1.405-3.249l-8.416-4.168C156.698,414.902,148.283,432.514,145.952,436.682L145.952,436.682z"/>
<path fill="#302515" d="M170.255,56.617c0.471,2.315,8.886,23.633,9.82,24.559c1.404-0.463,7.48-2.315,8.886-3.705l-1.405-2.778
	l-5.613,2.315l-3.272-8.344l4.679-1.852l-0.934-2.787l-4.68,1.397l-2.802-6.954l5.613-1.853l-0.942-3.25L170.255,56.617z"/>
<path fill="#312415" d="M187.557,453.832l8.878,2.787l0.942-3.25l-5.613-1.389c0-2.316,1.397-6.955,2.339-8.808l4.671,1.389
	l0.935-2.778l-4.671-1.39l1.869-7.416l6.075,1.39l0.935-3.242l-9.35-2.314C193.633,430.199,187.557,451.98,187.557,453.832
	L187.557,453.832z"/>
<path fill="#302515" d="M431.117,219.763c0,1.86,0.942,7.417,1.405,9.27l2.812-0.463l-0.479-6.02l8.896-0.926l0.926,5.094
	l2.811-0.463c0-1.853-0.463-3.705-0.463-5.094l7.473-0.934l0.942,4.639c0,0.926,0,0.463,0.463,0.926h2.812
	c0-1.852-0.942-7.88-1.405-9.732L431.117,219.763z"/>
<path fill="#2F2415" d="M336.69,413.977c0.936,2.777,11.218,17.611,13.086,22.242c2.803-0.463,6.076-3.705,8.415-4.631l-1.405-2.777
	l-5.142,2.777c-0.934-0.926-4.207-6.027-4.67-7.416l4.207-2.779l-1.405-2.322c-1.868,0-2.802,1.396-4.679,2.322
	c-0.935-1.858-3.267-4.639-3.736-6.953l5.143-2.778l-1.405-2.787C343.7,409.336,337.625,413.049,336.69,413.977L336.69,413.977z"/>
<path fill="#302515" d="M331.54,86.741l8.888,4.176l1.403-2.787l-5.142-2.778c0.463-1.853,2.803-6.028,3.737-7.88l4.67,2.315
	l1.405-2.778l-4.672-2.315c0.936-1.86,2.332-5.565,3.737-6.954l5.143,2.778l1.404-2.778c-2.803-1.853-5.612-2.787-8.415-4.639
	L331.54,86.741z"/>
<path fill="#2F2415" d="M217.01,43.635h-0.934v1.389l2.803,24.567l8.415-0.463l0.934-0.463v-1.389v-1.852l-6.076,0.926l-0.935-9.27
	h3.737l0.934-0.926v-1.397c0-1.389,0-0.926-0.463-0.926l-4.679,0.463l-0.935-7.88l6.076-0.463l-0.463-3.242L217.01,43.635z"/>
<path fill="#302515" d="M250.671,19.068h-2.812c-1.867,0.926-2.331,0.926-3.736,2.787c-3.273,3.705-1.405,10.659,5.142,10.659
	c3.736,0,6.547-2.787,7.01-6.028C256.275,21.384,252.539,20.458,250.671,19.068L250.671,19.068z"/>
<path fill="#302515" d="M159.972,37.144c-8.415,1.86-5.604,14.834,3.273,12.982C171.661,48.274,168.858,34.829,159.972,37.144
	L159.972,37.144z"/>
<path fill="#302515" d="M92.188,408.41c-8.886,2.316-5.612,15.299,3.273,12.981C103.876,419.533,101.065,406.559,92.188,408.41
	L92.188,408.41z"/>
<path fill="#302515" d="M471.788,213.743c-7.937,2.779-4.199,14.827,4.216,12.974C484.883,224.402,480.683,210.494,471.788,213.743
	L471.788,213.743z"/>
<path fill="#302515" d="M256.746,483.037h3.272c1.397-0.926,5.605-2.314,5.144-7.416c-0.936-7.881-13.095-7.881-13.558,0
	c0,2.777,0.935,5.102,3.273,6.49L256.746,483.037z"/>
<path fill="#302515" d="M335.284,37.144c-8.886,2.324-4.679,15.761,4.208,12.519C347.438,47.34,343.7,34.829,335.284,37.144
	L335.284,37.144z"/>
<path fill="#302515" d="M282.926,477.01c3.273-7.881-9.82-12.975-12.622-4.631C267.03,480.723,279.182,485.354,282.926,477.01
	L282.926,477.01z"/>
<path fill="#302515" d="M432.061,114.549c-7.952,2.787-4.216,15.298,4.199,12.982C444.675,124.745,440.938,111.771,432.061,114.549
	L432.061,114.549z"/>
<path fill="#302515" d="M151.557,448.738c-8.878,2.776-4.67,15.76,4.208,12.975C163.245,458.934,159.972,446.422,151.557,448.738
	L151.557,448.738z"/>
<path fill="#302515" d="M168.387,455.691c-8.878,2.315-5.142,15.291,3.273,12.975C180.076,466.352,177.273,453.832,168.387,455.691
	L168.387,455.691z"/>
<path fill="#302515" d="M351.182,45.024c-8.415,2.315-4.207,15.297,4.208,12.519C363.805,55.22,360.06,42.246,351.182,45.024
	L351.182,45.024z"/>
<path fill="#302515" d="M359.597,440.395c-8.415,2.316-5.143,15.298,3.735,12.976C371.748,451.053,368.476,438.08,359.597,440.395
	L359.597,440.395z"/>
<path fill="#302515" d="M473.656,231.356c-8.415,3.242-3.735,15.297,4.68,12.511C486.287,241.552,482.072,228.106,473.656,231.356
	L473.656,231.356z"/>
<path fill="#302515" d="M23.932,284.658c-8.878,3.242-4.208,15.76,3.737,12.975C36.555,294.854,32.347,281.879,23.932,284.658
	L23.932,284.658z"/>
<path fill="#302515" d="M450.759,145.607c-8.415,2.315-4.216,15.297,4.198,12.511C462.909,155.803,459.637,142.829,450.759,145.607
	L450.759,145.607z"/>
<path fill="#302515" d="M436.739,367.621c-8.416,4.176-2.348,16.223,5.604,12.518C450.296,375.963,444.675,364.379,436.739,367.621
	L436.739,367.621z"/>
<path fill="#302515" d="M463.853,178.981c-8.415,2.778-3.752,15.289,4.663,12.511C476.931,188.714,472.73,175.731,463.853,178.981
	L463.853,178.981z"/>
<path fill="#312415" d="M61.8,115.013c-7.944,2.786-3.745,15.297,4.67,12.519C74.886,124.745,70.678,111.308,61.8,115.013
	L61.8,115.013z"/>
<path fill="#302515" d="M447.485,351.867c-8.415,1.391-7.01,14.826,2.812,13.438C458.711,363.916,456.363,350.479,447.485,351.867
	L447.485,351.867z"/>
<path fill="#2F2415" d="M68.347,381.992c-9.35,1.852-6.076,14.834,2.802,12.98C79.564,393.576,76.762,380.139,68.347,381.992
	L68.347,381.992z"/>
<path fill="#302515" d="M85.177,87.204c-7.952,2.778-4.679,15.297,4.208,12.982C97.8,97.863,94.056,84.426,85.177,87.204
	L85.177,87.204z"/>
<path fill="#302515" d="M120.235,431.125c-9.349,2.779-4.671,15.762,4.208,12.512C132.395,440.857,128.65,428.811,120.235,431.125
	L120.235,431.125z"/>
<path fill="#302515" d="M135.197,440.395c-8.414,2.779-4.208,15.298,4.208,12.976C147.349,451.053,144.076,437.617,135.197,440.395
	L135.197,440.395z"/>
<path fill="#302515" d="M20.195,231.356c-7.951,3.242-3.744,15.761,4.671,12.511C33.281,241.552,29.074,228.106,20.195,231.356
	L20.195,231.356z"/>
<path fill="#302515" d="M409.146,87.204c-8.878,2.778-4.199,15.761,4.216,12.982C421.776,97.4,417.562,84.426,409.146,87.204
	L409.146,87.204z"/>
<path fill="#302515" d="M128.188,53.368c-8.886,1.853-6.084,15.297,2.803,12.982C139.405,64.49,136.603,51.979,128.188,53.368
	L128.188,53.368z"/>
<path fill="#312415" d="M265.625,19.995c-8.416,2.786-5.144,15.297,3.272,12.982C277.784,31.124,274.511,17.679,265.625,19.995
	L265.625,19.995z"/>
<path fill="#302515" d="M197.84,473.305c1.405,7.881,14.962,6.947,13.557-2.321C209.992,462.639,196.435,464.035,197.84,473.305
	L197.84,473.305z"/>
<path fill="#302515" d="M375.022,431.125c-8.887,2.779-5.142,15.297,3.736,12.975C387.174,441.783,383.438,428.811,375.022,431.125
	L375.022,431.125z"/>
<path fill="#302515" d="M458.231,161.831c-8.878,3.242-4.199,15.29,4.216,12.974C470.862,172.027,466.647,158.582,458.231,161.831
	L458.231,161.831z"/>
<path fill="#302515" d="M283.39,22.318c-8.416,2.778-4.671,15.752,3.744,12.974C296.012,32.514,291.805,19.531,283.39,22.318
	L283.39,22.318z"/>
<path fill="#312415" d="M426.439,382.455c-8.415,3.25-3.736,15.297,4.679,12.518C439.532,391.725,434.854,378.75,426.439,382.455
	L426.439,382.455z"/>
<path fill="#302515" d="M52.451,129.847c-8.887,2.778-4.68,15.297,4.208,12.511C65.074,140.042,60.866,127.068,52.451,129.847
	L52.451,129.847z"/>
<path fill="#302515" d="M466.184,302.734c-8.415,3.24-3.273,15.76,5.142,12.047C478.799,312.004,475.063,299.029,466.184,302.734
	L466.184,302.734z"/>
<path fill="#302515" d="M57.592,367.621c-9.349,2.322-5.142,15.297,3.274,12.98C68.81,378.287,66.471,365.305,57.592,367.621
	L57.592,367.621z"/>
<path fill="#302515" d="M473.194,267.045c-8.416,3.242-4.2,15.297,3.736,12.975C485.346,277.703,482.072,263.795,473.194,267.045
	L473.194,267.045z"/>
<path fill="#302515" d="M33.281,319.42c-9.35,3.242-3.736,15.762,4.208,12.512C45.441,329.152,41.696,316.643,33.281,319.42
	L33.281,319.42z"/>
<path fill="#302515" d="M112.754,63.563c-8.878,2.787-4.671,15.76,3.745,12.982C125.377,73.767,120.707,61.248,112.754,63.563
	L112.754,63.563z"/>
<path fill="#312415" d="M389.041,420.467c-8.414,2.777-4.198,15.289,4.217,12.512C401.194,430.662,397.937,417.68,389.041,420.467
	L389.041,420.467z"/>
<path fill="#312415" d="M461.505,319.42c-8.415,2.779-4.679,15.299,3.736,12.975C473.194,330.08,470.384,316.643,461.505,319.42
	L461.505,319.42z"/>
<path fill="#302515" d="M326.869,455.691c-8.886,2.778-5.142,15.291,3.736,12.975C338.559,466.814,335.748,453.369,326.869,455.691
	L326.869,455.691z"/>
<path fill="#302515" d="M229.633,19.995c-8.886,2.786-5.613,15.297,3.272,12.982C241.321,31.124,238.511,17.679,229.633,19.995
	L229.633,19.995z"/>
<path fill="#2F2415" d="M470.384,285.121c-8.879,2.779-3.736,15.297,4.215,12.512C482.551,294.854,479.277,281.879,470.384,285.121
	L470.384,285.121z"/>
<path fill="#302515" d="M238.511,483.037h3.745c2.332-1.853,5.604-2.785,4.67-7.879c-0.463-3.242-3.273-6.029-7.01-5.566
	s-6.076,2.787-6.076,6.492C233.369,480.252,236.18,481.186,238.511,483.037L238.511,483.037z"/>
<path fill="#312415" d="M21.129,267.045c-7.952,2.316-4.679,15.762,4.208,12.975C33.752,277.24,30.008,264.266,21.129,267.045
	L21.129,267.045z"/>
<path fill="#302515" d="M185.217,461.25c-8.878,2.785-5.142,15.297,3.745,12.98C196.906,471.916,194.104,458.934,185.217,461.25
	L185.217,461.25z"/>
<path fill="#302515" d="M483.015,256.85v-2.787c-1.868-2.776-2.332-5.094-7.011-5.094c-8.415,0-8.895,12.512-0.463,13.438
	C480.683,262.869,482.072,259.164,483.015,256.85L483.015,256.85z"/>
<path fill="#302515" d="M43.564,145.607c-8.415,2.778-4.208,15.297,4.208,12.511c3.273-0.926,5.613-4.168,4.208-8.343
	C51.045,146.997,47.772,144.218,43.564,145.607L43.564,145.607z"/>
<path fill="#302515" d="M403.077,408.873c-8.895,2.316-4.679,15.299,3.736,12.52C415.229,419.07,411.492,406.096,403.077,408.873
	L403.077,408.873z"/>
<path fill="#302515" d="M343.7,448.738c-8.887,2.313-5.143,14.834,3.273,12.975C355.39,459.859,352.578,446.422,343.7,448.738
	L343.7,448.738z"/>
<path fill="#2F2415" d="M367.54,53.831c-8.878,2.323-5.611,14.834,3.273,12.519C379.222,64.49,376.428,51.516,367.54,53.831
	L367.54,53.831z"/>
<path fill="#302515" d="M300.69,26.022c-8.415,3.242-3.744,15.297,4.208,12.511C313.313,35.755,309.105,22.781,300.69,26.022
	L300.69,26.022z"/>
<path fill="#302515" d="M25.337,196.13c-8.886,4.168-2.812,15.752,5.142,12.511c2.804-1.389,5.143-4.631,3.737-8.807
	C32.818,197.057,29.074,194.27,25.337,196.13L25.337,196.13z"/>
<path fill="#302515" d="M22.063,213.743c-1.868,0.926-2.802,0.926-3.745,3.242c-0.934,1.852-0.463,4.176,0,6.028
	c1.405,2.315,5.15,5.094,8.887,3.242C35.149,223.013,30.479,210.031,22.063,213.743L22.063,213.743z"/>
<path fill="#302515" d="M39.357,336.57c-8.415,3.705-2.802,15.76,5.613,12.049c2.802-1.391,4.671-4.631,3.273-8.344
	C47.309,337.033,43.564,334.719,39.357,336.57L39.357,336.57z"/>
<path fill="#302515" d="M143.142,45.024c-8.415,2.787-4.208,15.297,4.208,12.519C155.301,55.22,152.028,41.783,143.142,45.024
	L143.142,45.024z"/>
<path fill="#302515" d="M193.162,26.022c-1.868,0.926-2.332,0.926-3.267,3.242c-3.272,6.028,2.804,12.056,8.878,9.27
	C206.255,34.829,201.114,22.781,193.162,26.022L193.162,26.022z"/>
<path fill="#302515" d="M28.61,302.271c-9.349,2.313-5.612,15.297,3.273,12.973C40.291,313.393,37.025,299.955,28.61,302.271
	L28.61,302.271z"/>
<path fill="#302515" d="M36.083,162.294c-8.878,3.242-2.803,15.761,5.149,12.048C48.706,171.101,44.499,158.582,36.083,162.294
	L36.083,162.294z"/>
<path fill="#302515" d="M415.692,395.9c-8.878,2.313-5.142,14.826,3.273,12.973C427.382,407.021,424.571,393.576,415.692,395.9
	L415.692,395.9z"/>
<path fill="#302515" d="M105.273,420.467c-8.878,3.242-3.736,15.752,4.679,12.512C117.896,430.199,113.688,417.68,105.273,420.467
	L105.273,420.467z"/>
<path fill="#302515" d="M72.555,100.649c-8.415,4.167-2.339,15.752,5.604,12.511C85.641,109.456,80.97,97.4,72.555,100.649
	L72.555,100.649z"/>
<path fill="#302515" d="M15.517,254.063v3.25c1.405,1.853,2.802,5.558,7.481,5.095c3.272-0.464,6.076-3.242,6.076-6.953
	c0-5.558-6.548-8.336-10.756-5.095C16.451,251.748,16.922,252.211,15.517,254.063L15.517,254.063z"/>
<path fill="#302515" d="M396.052,75.156c-8.878,2.778-4.199,15.29,4.216,12.511C408.22,85.352,404.946,71.907,396.052,75.156
	L396.052,75.156z"/>
<path fill="#302515" d="M422.24,100.186c-9.356,1.853-6.084,14.827,2.331,13.438c3.752-0.926,6.547-4.168,5.143-8.343
	C429.25,102.039,425.977,99.723,422.24,100.186L422.24,100.186z"/>
<path fill="#302515" d="M210.934,22.781c-8.415,3.242-2.811,15.29,5.143,12.511C224.02,32.05,219.813,19.068,210.934,22.781
	L210.934,22.781z"/>
<path fill="#302515" d="M442.344,129.847c-8.878,2.778-4.68,15.297,3.735,12.511c3.273-0.926,6.084-4.167,4.68-8.343
	C449.816,131.236,446.079,128.458,442.344,129.847L442.344,129.847z"/>
<path fill="#302515" d="M304.898,468.666c1.405,8.807,14.962,6.955,13.557-2.314C317.05,458.471,303.492,459.859,304.898,468.666
	L304.898,468.666z"/>
<path fill="#302515" d="M79.564,395.9c-9.349,2.313-5.142,15.76,3.737,12.51c3.273-0.926,5.613-4.631,4.208-8.342
	C86.575,397.289,83.301,394.973,79.564,395.9L79.564,395.9z"/>
<path fill="#302515" d="M30.008,178.981c-8.416,3.705-3.737,15.289,4.679,12.511C42.63,188.713,38.894,175.268,30.008,178.981
	L30.008,178.981z"/>
<path fill="#302515" d="M215.604,476.084c0.472,3.24,3.745,6.027,7.944,5.102c3.272-0.463,6.084-3.713,5.613-7.418
	C227.765,465.424,214.2,466.814,215.604,476.084L215.604,476.084z"/>
<path fill="#302515" d="M382.031,63.563c-7.943,2.787-4.671,15.297,4.216,12.982C394.184,74.23,390.909,60.785,382.031,63.563
	L382.031,63.563z"/>
<path fill="#302515" d="M98.734,75.156c-8.415,2.315-5.142,15.29,3.736,12.974C110.415,85.815,107.612,72.37,98.734,75.156
	L98.734,75.156z"/>
<path fill="#302515" d="M454.031,336.57c-8.415,3.242-2.811,15.297,5.143,12.049C467.11,345.84,462.909,332.857,454.031,336.57
	L454.031,336.57z"/>
<path fill="#302515" d="M176.802,31.124c-9.349,2.779-4.67,15.29,3.745,12.511C188.02,41.32,185.217,28.338,176.802,31.124
	L176.802,31.124z"/>
<path fill="#302515" d="M48.243,351.867c-8.887,2.316-5.613,15.754,3.735,12.975C59.461,362.99,57.122,350.008,48.243,351.867
	L48.243,351.867z"/>
<path fill="#302515" d="M287.597,473.768c0.472,2.779,3.745,5.558,7.952,5.095c3.272-0.927,6.075-4.168,5.142-8.343
	C299.284,462.639,285.729,464.498,287.597,473.768L287.597,473.768z"/>
<path fill="#302515" d="M318.926,30.661c-9.356,2.315-5.612,15.29,3.266,12.974C329.673,41.783,327.805,28.801,318.926,30.661
	L318.926,30.661z"/>
<path fill="#302515" d="M469.456,195.667c-8.878,1.852-6.083,14.826,2.812,12.974C480.203,207.252,478.336,193.807,469.456,195.667
	L469.456,195.667z"/>
<path fill="#302617" d="M138.934,336.107l2.339,0.463v-15.297c0.472,0.463,9.35,13.908,10.283,14.834h2.339
	c0.472-2.779,0.935-17.15,0-19.002l-1.868,0.463c-0.934,2.313,0,11.121-0.471,14.363c0,0-9.349-13.438-10.283-14.826h-2.339V336.107
	L138.934,336.107z"/>
<path fill="#2F2415" d="M128.65,420.93l-1.867,2.779c3.272,7.416,12.151,4.631,13.557-2.316c0.463-3.25-3.273-13.908,3.272-12.981
	c1.868,0,2.34,1.391,3.273,2.778c0.934-0.926,1.397-0.926,1.868-2.315c-3.737-7.879-12.623-3.703-13.094,3.25
	c0,3.242,1.876,6.946,0,10.195C132.395,428.34,128.65,420.93,128.65,420.93L128.65,420.93z"/>
<path fill="#312415" d="M447.948,306.439l3.273,0.926c1.405-2.779,3.272-5.557,0.941-8.799c-1.867-1.861-6.084-3.25-9.356-1.861
	c-3.273,1.391-5.604,4.176-9.341,3.713c-6.549-1.389-0.942-6.953-0.942-6.953l-3.272-1.389c-6.085,6.49,0.463,13.898,7.951,11.584
	c2.794-0.926,6.067-3.705,8.415-3.705C448.41,299.492,451.685,301.809,447.948,306.439L447.948,306.439z"/>
<path fill="#2F2415" d="M417.098,164.609l-3.273,1.389c-0.94,8.807,9.82,9.733,13.559,3.713c1.404-2.787,1.868-6.491,3.272-8.807
	c2.812-3.25,6.547-1.86,6.547,3.242l3.273-1.389c-1.405-11.13-11.226-6.954-13.558-2.779c-1.404,2.779-1.404,6.946-3.753,8.799
	C419.907,171.563,416.635,169.711,417.098,164.609L417.098,164.609z"/>
<path fill="#312415" d="M74.423,184.538l3.272,1.389c6.548-5.094,1.868-13.437-6.075-12.511c-3.273,0.463-6.084,3.241-9.351,2.778
	c-1.876,0-3.272-0.926-3.744-2.315c-0.471-2.315,1.405-3.241,2.34-4.167c-0.936-0.934-1.405-0.934-2.812-1.397
	c-6.539,4.639-1.396,13.445,7.018,11.13c2.803-0.463,6.076-3.25,9.35-2.323c1.405,0.934,2.802,1.86,2.802,3.712
	C76.762,183.148,75.828,183.611,74.423,184.538L74.423,184.538z"/>
<path fill="#2F2415" d="M152.028,65.887l11.688,23.17l3.272-1.389l-5.148-11.122l4.679-2.315l-1.405-2.323l-5.142,1.86
	c-0.463-2.323-2.339-4.176-3.272-6.954l5.142-2.323c0-1.389-0.463-2.315-1.397-3.242C158.575,62.174,152.962,64.49,152.028,65.887
	L152.028,65.887z"/>
<path fill="#2F2617" d="M328.275,318.957c9.351-1.852,10.747,13.438,2.803,15.299C321.729,336.107,319.39,321.273,328.275,318.957
	L328.275,318.957z M326.869,317.105c-11.218,2.776-7.479,22.707,5.613,19.002C343.229,333.328,339.955,313.855,326.869,317.105
	L326.869,317.105z"/>
<path fill="#2F2415" d="M304.427,317.568l-2.802-0.463v19.002h1.867l0.472-14.834l0.463,0.463
	c0.472,1.389,8.416,12.981,9.821,14.371l2.339,0.463v-19.465h-2.339v14.826C312.843,330.543,305.831,319.883,304.427,317.568
	L304.427,317.568z"/>
<path fill="#312415" d="M173.529,424.172l3.745,1.389l-8.886,21.789l3.273,0.927c1.867-2.316,6.547-17.15,8.886-21.326l3.736,1.391
	l0.934-2.778c-1.405-0.927-9.349-4.169-10.754-4.169L173.529,424.172z"/>
<path fill="#302617" d="M237.114,146.07c-0.471-5.102,2.332-1.852,2.803-6.491c0.463-3.242-0.472-6.028,1.868-7.88
	c0,3.25,0.935,12.056,2.339,14.834c1.405,2.778,3.736,1.852,4.208,4.167c0.934,1.86,0,6.028-0.937,6.954
	c-1.403,0.463-2.81,0.463-4.207,0c0-0.463,0-1.389-0.471-1.852c-0.463-0.926-0.935-0.926-1.397-1.853
	c-0.471-1.389,0.464-2.786,0-4.639L237.114,146.07z M238.982,150.238L238.982,150.238L238.982,150.238z"/>
<path fill="#FFFFFA" stroke="#35291B" stroke-width="2.5" stroke-miterlimit="10" d="M237.114,146.07l4.208,3.242
	c0.464,1.853-0.471,3.25,0,4.639c0.464,0.926,0.935,0.926,1.397,1.853c0.471,0.463,0.471,1.389,0.471,1.852
	c1.397,0.463,2.804,0.463,4.207,0c0.937-0.926,1.869-5.094,0.937-6.954c-0.473-2.315-2.804-1.389-4.208-4.167
	c-1.405-2.778-2.339-11.585-2.339-14.834c-2.34,1.853-1.405,4.639-1.868,7.88C239.445,144.218,236.643,140.969,237.114,146.07
	L237.114,146.07z"/>
<path fill="#2F2415" d="M82.838,340.738c0.934,2.322,2.803,4.176,3.737,6.953c-5.143,0.463-14.491,3.25-20.567,4.176l-2.803,0.926
	l1.396,2.779c3.745-0.463,14.962-3.242,20.104-4.168c1.404-0.463,5.612-1.396,6.547-1.859l-5.613-9.732L82.838,340.738z"/>
<path fill="#2F2415" d="M404.004,350.008c1.404,0.934,1.404,0.934,3.272,1.396c0.464-1.859,2.332-4.176,3.273-6.027
	c0.941,0.463,0,0,0.941,0.926l11.21,12.049c0.941,0.926,3.736,4.176,4.68,4.64l1.404-2.779
	c-0.464-1.396-15.903-18.075-18.698-19.937L404.004,350.008z"/>
<path fill="#302718" d="M361.929,328.227c0.471-1.389,0.94-2.776,1.403-4.176l1.869-4.168l2.811,8.344H361.929z M356.323,336.57
	l2.34-0.463l2.331-5.564c11.688,0,6.547-0.928,10.755,5.564h2.34c0-1.39-7.019-17.613-7.952-19.002h-2.331
	C362.869,318.494,356.323,334.719,356.323,336.57L356.323,336.57z"/>
<polygon fill="#312415" points="278.719,69.591 288.068,71.444 288.539,68.202 282.455,67.276 286.663,44.562 282.926,43.635 "/>
<path fill="#302617" d="M188.491,319.42c4.208,0,9.35-1.389,9.35,3.242c0,4.639-5.613,3.713-9.82,3.713L188.491,319.42z
	 M185.688,336.107h2.332v-7.418c6.083-0.463,13.558,0.463,12.16-6.953c-0.471-5.557-8.886-5.094-14.491-4.631L185.688,336.107
	L185.688,336.107z"/>
<path fill="#2F2617" d="M282.455,319.42l3.272,8.807h-6.547L282.455,319.42z M273.577,336.107h2.802
	c3.272-6.027-1.868-5.564,10.284-5.564c0.471,1.389,0.934,2.785,1.404,4.176c0.935,1.852,0.935,1.389,3.273,1.389l-7.481-19.002
	h-2.803L273.577,336.107z"/>
<path fill="#302617" d="M174.463,330.08l-2.331-0.465c-1.405,6.955-11.227,6.955-11.689-2.314c-0.471-7.881,5.143-9.732,8.878-7.881
	c1.405,0.463,1.868,1.391,2.812,3.242l2.331-0.463c-1.868-8.344-17.293-7.881-16.83,5.102c0.942,13.9,16.83,9.732,16.83,3.705
	C174.463,330.08,174.463,330.543,174.463,330.08L174.463,330.08z"/>
<path fill="#302417" d="M361.465,396.826c0.464,1.389,0.464,0.926,1.404,2.314l1.868-1.39c3.273,2.778,8.879,9.731,12.152,12.976
	c0.934,1.396,2.331,3.713,3.736,4.639c1.404-0.463,1.867-0.926,2.811-2.316l-13.094-14.834c-1.397-1.389-3.273-4.168-4.208-5.102
	C364.738,393.576,361.929,396.363,361.465,396.826L361.465,396.826z"/>
<path fill="#302515" d="M429.713,322.199h-6.068c0.464,1.389,3.273,3.25,4.679,3.713c-0.479,2.314-1.404,4.168-1.884,6.482
	c1.405-0.927,3.753-2.779,5.142-3.705c0.942,0.463,4.68,3.242,5.158,3.705l-1.404-6.021c0.463-0.926,1.404-1.39,2.33-1.86
	c0.464-0.464,0.464-0.464,0.942-0.927l1.389-1.389h-6.066l-2.349-6.021L429.713,322.199z"/>
<path fill="#312415" d="M63.205,323.588h-6.547c1.396,1.398,3.272,2.787,4.671,3.713l-1.397,6.027
	c1.869-0.471,3.273-2.322,5.143-3.248c1.867,0.926,3.735,2.777,5.604,3.711c-0.934-1.396-1.868-4.639-1.868-6.49
	c1.405-1.389,3.273-2.313,4.679-3.713h-6.547l-1.867-6.02L63.205,323.588z"/>
<path fill="#302617" d="M347.907,336.107c3.736,0.463,2.34,0,6.076-8.344c0.471-2.314,3.736-9.271,3.736-10.658h-2.331
	l-6.076,16.686l-6.084-16.686h-2.802C340.428,318.494,346.975,334.719,347.907,336.107L347.907,336.107z"/>
<path fill="#302718" d="M241.321,336.107h2.332l7.481-19.002h-2.339l-6.54,16.686l-6.076-16.686h-2.339
	C233.84,318.031,240.379,334.719,241.321,336.107L241.321,336.107z"/>
<path fill="#2F2415" d="M62.271,156.266c3.267,1.853,7.944,4.176,11.682,6.028c3.272,1.853,8.886,5.094,11.688,6.02l1.868-2.778
	L64.14,153.488L62.271,156.266z"/>
<path fill="#302417" d="M379.7,121.503l1.868,1.853c1.405-0.463,18.698-17.15,19.161-18.076l-1.868-2.315
	C396.531,104.817,380.163,120.114,379.7,121.503L379.7,121.503z"/>
<polygon fill="#302515" points="430.192,282.342 456.363,286.973 456.826,283.732 430.655,279.094 "/>
<polygon fill="#312415" points="40.291,256.85 66.942,256.387 66.942,253.137 40.762,253.6 "/>
<path fill="#312415" d="M247.86,77.935c-7.01,2.315-2.803,11.585,3.273,9.733C256.746,85.352,254.407,75.619,247.86,77.935
	L247.86,77.935z"/>
<path fill="#302515" d="M274.511,80.25c-6.075,2.323-3.273,11.593,3.736,9.27C283.86,87.667,281.058,77.472,274.511,80.25
	L274.511,80.25z"/>
<path fill="#312415" d="M342.767,385.705c-6.076,2.314-2.812,12.047,3.736,9.268C352.115,393.113,349.313,383.381,342.767,385.705
	L342.767,385.705z"/>
<path fill="#302515" d="M389.521,338.422c-6.084,2.316-2.348,11.586,3.736,9.27C399.324,345.377,396.052,335.645,389.521,338.422
	L389.521,338.422z"/>
<path fill="#302515" d="M415.692,223.013c-6.083,2.315-2.81,12.048,3.737,9.27C425.05,229.967,422.24,220.689,415.692,223.013
	L415.692,223.013z"/>
<path fill="#312415" d="M381.569,349.082c-6.084,2.785-1.868,12.055,4.199,9.27C391.39,356.035,388.115,346.303,381.569,349.082
	L381.569,349.082z"/>
<path fill="#302515" d="M233.84,78.398c-6.076,2.315-2.339,11.584,3.736,9.732C243.653,85.815,240.85,76.083,233.84,78.398
	L233.84,78.398z"/>
<path fill="#312415" d="M188.02,404.242c-5.604,2.316-2.803,11.586,3.744,9.27C197.84,411.66,195.038,401.92,188.02,404.242
	L188.02,404.242z"/>
<path fill="#302515" d="M325.937,96.937c-7.011,1.853-3.745,11.13,2.802,9.27C334.814,104.817,332.483,95.084,325.937,96.937
	L325.937,96.937z"/>
<path fill="#312415" d="M109.952,148.849c-7.011,1.852-4.208,11.593,2.339,9.732C118.367,157.192,116.499,147.46,109.952,148.849
	L109.952,148.849z"/>
<path fill="#302515" d="M176.339,398.678c-6.547,1.854-4.208,11.123,2.331,9.732C185.217,407.021,182.878,397.289,176.339,398.678
	L176.339,398.678z"/>
<path fill="#302515" d="M131.453,369.018c-6.539,2.314-3.267,11.584,3.272,9.271C140.802,376.426,138,366.693,131.453,369.018
	L131.453,369.018z"/>
<path fill="#302515" d="M300.69,86.741c-6.075,1.852-3.272,11.122,3.273,9.27C310.039,94.158,307.237,84.426,300.69,86.741
	L300.69,86.741z"/>
<path fill="#302515" d="M307.237,404.242c-6.547,1.854-3.744,11.123,2.803,9.734C316.115,412.123,313.776,401.92,307.237,404.242
	L307.237,404.242z"/>
<path fill="#302515" d="M393.721,160.442c-6.084,1.389-4.199,11.122,2.331,9.732C402.599,168.777,400.268,158.582,393.721,160.442
	L393.721,160.442z"/>
<path fill="#302515" d="M403.077,314.781c-6.547,1.861-3.753,11.594,2.794,9.27c2.349-0.463,4.217-3.24,3.273-6.02
	C408.683,315.707,405.871,313.855,403.077,314.781L403.077,314.781z"/>
<path fill="#302515" d="M416.156,263.332c-6.067,3.25-1.868,11.594,4.215,9.27C426.439,269.824,422.24,260.555,416.156,263.332
	L416.156,263.332z"/>
<path fill="#312415" d="M90.319,184.538c-7.018,1.86-3.272,11.593,3.273,9.27C99.197,191.955,96.395,182.222,90.319,184.538
	L90.319,184.538z"/>
<path fill="#312415" d="M253.936,414.902c-6.075,2.777-1.867,11.584,4.217,9.27C264.228,421.855,260.482,412.123,253.936,414.902
	L253.936,414.902z"/>
<path fill="#302515" d="M364.268,369.018c-6.547,1.853-3.736,11.584,2.803,9.271C373.154,376.898,370.814,367.156,364.268,369.018
	L364.268,369.018z"/>
<path fill="#302515" d="M378.296,138.653c-7.012,1.853-3.745,11.122,2.811,9.27C387.174,146.07,384.363,136.801,378.296,138.653
	L378.296,138.653z"/>
<path fill="#302515" d="M319.86,398.678c-7.018,1.854-3.744,11.586,2.803,9.732C328.738,406.559,326.399,397.289,319.86,398.678
	L319.86,398.678z"/>
<path fill="#302515" d="M354.454,377.824c-6.547,1.389-4.679,10.658,1.868,9.732C362.869,386.168,360.531,375.963,354.454,377.824
	L354.454,377.824z"/>
<path fill="#302515" d="M136.603,119.651c-6.084,1.852-3.745,11.585,3.267,9.27C145.952,127.068,143.142,117.336,136.603,119.651
	L136.603,119.651z"/>
<path fill="#302515" d="M78.63,249.432c-6.547,1.853-4.679,11.123,2.339,9.732C87.046,257.775,85.177,248.042,78.63,249.432
	L78.63,249.432z"/>
<path fill="#302515" d="M417.562,236.45c-6.547,1.39-4.2,10.667,2.347,9.733C426.439,244.793,424.108,234.598,417.562,236.45
	L417.562,236.45z"/>
<path fill="#312415" d="M122.575,359.277c-7.011,1.396-4.208,11.129,2.339,9.74C130.99,367.621,129.122,357.889,122.575,359.277
	L122.575,359.277z"/>
<path fill="#302515" d="M260.954,78.861c-6.547,2.778-1.868,11.585,3.735,8.807C270.304,85.352,267.501,75.619,260.954,78.861
	L260.954,78.861z"/>
<path fill="#312415" d="M369.408,128.458c-7.01,1.853-4.207,11.122,1.876,9.733C377.823,136.801,375.955,127.068,369.408,128.458
	L369.408,128.458z"/>
<path fill="#302515" d="M78.63,263.332c-5.613,1.861-3.273,11.594,3.737,9.27C88.443,270.287,85.177,260.555,78.63,263.332
	L78.63,263.332z"/>
<path fill="#302515" d="M102.008,160.442c-6.547,2.315-2.812,12.048,3.736,9.27C111.357,167.388,108.083,158.119,102.008,160.442
	L102.008,160.442z"/>
<path fill="#302515" d="M92.658,314.781c-2.34,0.926-4.679,3.25-3.273,6.492c0.935,2.313,3.737,4.176,7.01,2.776
	C102.008,322.199,98.734,312.467,92.658,314.781L92.658,314.781z"/>
<path fill="#302515" d="M201.577,408.41c-6.539,1.391-4.2,11.123,2.339,9.732C209.992,416.291,208.124,407.021,201.577,408.41
	L201.577,408.41z"/>
<path fill="#302515" d="M415.229,276.314c-7.01,1.854-3.736,11.586,2.332,9.731C424.108,284.195,421.298,274.463,415.229,276.314
	L415.229,276.314z"/>
<path fill="#302515" d="M220.747,80.25c-6.076,2.323-2.804,12.056,3.745,9.27C230.096,87.204,227.293,77.935,220.747,80.25
	L220.747,80.25z"/>
<path fill="#302515" d="M181.944,91.38c-6.075,2.315-2.802,11.585,3.745,9.27C191.293,98.326,188.491,88.593,181.944,91.38
	L181.944,91.38z"/>
<path fill="#2F2415" d="M408.22,302.271c-6.084,1.852-4.216,11.121,2.331,9.731C417.562,310.15,414.287,300.418,408.22,302.271
	L408.22,302.271z"/>
<path fill="#312415" d="M95.461,172.027c-6.547,2.315-3.273,12.048,3.272,9.732C104.81,179.444,102.008,170.174,95.461,172.027
	L95.461,172.027z"/>
<path fill="#302515" d="M373.154,359.748c-6.547,2.779-1.869,11.584,4.207,8.807C382.975,366.23,379.222,356.498,373.154,359.748
	L373.154,359.748z"/>
<path fill="#302515" d="M127.245,128.458c-6.539,1.39-4.67,11.122,2.339,9.733C135.661,136.801,133.792,127.068,127.245,128.458
	L127.245,128.458z"/>
<path fill="#302515" d="M170.255,96.937c-7.01,1.853-3.736,11.13,2.811,9.27C179.142,104.817,176.802,95.084,170.255,96.937
	L170.255,96.937z"/>
<path fill="#302515" d="M163.245,393.113c-6.076,3.25-1.405,11.594,4.208,8.807C174,399.141,169.321,389.871,163.245,393.113
	L163.245,393.113z"/>
<path fill="#302515" d="M81.904,210.031c-6.075,1.852-3.272,11.13,3.273,9.27C91.253,217.911,88.914,207.715,81.904,210.031
	L81.904,210.031z"/>
<path fill="#312415" d="M147.349,110.845c-7.01,2.315-3.736,11.585,2.812,9.733C156.235,118.725,153.896,108.993,147.349,110.845
	L147.349,110.845z"/>
<path fill="#302515" d="M227.293,413.977c-6.547,2.777-1.868,11.584,4.208,8.806C237.114,420.004,233.369,410.727,227.293,413.977
	L227.293,413.977z"/>
<path fill="#302515" d="M411.492,289.752c-6.547,2.787-1.884,11.592,3.736,9.277C420.835,296.705,418.024,286.973,411.492,289.752
	L411.492,289.752z"/>
<path fill="#302515" d="M142.208,377.824c-7.011,1.852-3.737,11.584,2.81,9.27C150.623,385.24,148.283,375.963,142.208,377.824
	L142.208,377.824z"/>
<path fill="#302515" d="M105.273,338.422c-6.539,3.242-1.869,11.586,3.744,9.27C115.094,345.377,111.357,335.645,105.273,338.422
	L105.273,338.422z"/>
<path fill="#302515" d="M158.575,103.428c-7.019,2.315-3.745,11.585,2.802,9.732C167.453,111.308,164.65,101.576,158.575,103.428
	L158.575,103.428z"/>
<path fill="#312415" d="M86.111,197.057c-6.547,1.389-4.208,11.122,2.332,9.732C94.056,205.4,92.658,195.205,86.111,197.057
	L86.111,197.057z"/>
<path fill="#302515" d="M294.615,408.41c-7.019,1.854-3.272,11.123,2.803,9.27C303.492,416.291,301.153,406.559,294.615,408.41
	L294.615,408.41z"/>
<path fill="#312415" d="M410.551,197.057c-6.547,1.389-4.199,11.122,2.332,9.732C418.966,205.4,417.098,195.205,410.551,197.057
	L410.551,197.057z"/>
<path fill="#312415" d="M399.805,172.49c-1.405,0.463-1.868,0.463-2.812,2.315c-1.868,3.712,1.868,8.343,6.547,6.491
	C409.146,178.981,405.871,169.711,399.805,172.49L399.805,172.49z"/>
<path fill="#302515" d="M240.379,414.902c-6.076,2.777-1.869,11.584,4.208,9.27C250.199,421.855,247.396,412.123,240.379,414.902
	L240.379,414.902z"/>
<path fill="#312415" d="M152.028,386.168c-1.404,0.463-1.867,0.926-2.339,2.314c-1.868,3.705,1.868,8.344,6.547,6.49
	C162.311,392.65,158.104,382.918,152.028,386.168L152.028,386.168z"/>
<path fill="#302515" d="M98.263,326.838c-6.547,3.705-1.868,11.584,4.208,9.27C108.547,333.328,103.876,324.051,98.263,326.838
	L98.263,326.838z"/>
<path fill="#302515" d="M77.696,236.45c-6.075,3.25-1.404,12.056,4.208,9.27C87.509,242.941,84.243,233.671,77.696,236.45
	L77.696,236.45z"/>
<path fill="#302515" d="M396.531,326.838c-6.547,3.705-1.868,11.584,4.199,9.27C406.352,333.328,402.599,324.051,396.531,326.838
	L396.531,326.838z"/>
<path fill="#302515" d="M81.433,276.314c-7.01,1.389-4.671,11.121,1.868,9.731C89.385,284.658,87.98,274.926,81.433,276.314
	L81.433,276.314z"/>
<path fill="#302515" d="M313.313,91.38c-6.076,1.852-3.273,11.122,3.273,9.27C322.662,98.789,319.86,89.057,313.313,91.38
	L313.313,91.38z"/>
<path fill="#302515" d="M331.077,393.113c-6.075,3.25-1.867,11.594,4.207,8.807C341.361,399.604,337.153,389.871,331.077,393.113
	L331.077,393.113z"/>
<path fill="#302515" d="M213.736,411.66c-6.075,3.242-1.867,12.049,4.208,9.27C223.549,418.143,219.813,408.873,213.736,411.66
	L213.736,411.66z"/>
<path fill="#312415" d="M413.361,210.031c-6.547,2.323-2.811,11.593,3.273,9.27C422.702,217.448,419.907,207.715,413.361,210.031
	L413.361,210.031z"/>
<path fill="#302515" d="M281.058,411.66c-5.612,2.316-3.272,11.584,3.737,9.27C290.87,419.07,287.597,409.336,281.058,411.66
	L281.058,411.66z"/>
<path fill="#302515" d="M417.098,249.895c-6.547,3.242-1.868,11.585,4.2,9.269C426.918,256.387,423.165,247.117,417.098,249.895
	L417.098,249.895z"/>
<path fill="#312415" d="M267.501,413.977c-6.547,2.777-1.876,11.584,4.208,8.806C277.313,420.004,274.04,411.189,267.501,413.977
	L267.501,413.977z"/>
<path fill="#302515" d="M83.301,289.752c-6.076,2.787-2.332,11.129,3.745,9.277C93.122,296.705,89.848,286.51,83.301,289.752
	L83.301,289.752z"/>
<path fill="#302515" d="M113.688,349.082c-7.01,2.322-3.272,11.129,2.812,9.732C122.575,356.961,119.772,347.229,113.688,349.082
	L113.688,349.082z"/>
<path fill="#302515" d="M79.564,223.013c-6.076,2.315-3.272,11.585,3.273,9.732C88.914,230.893,86.111,220.689,79.564,223.013
	L79.564,223.013z"/>
<path fill="#312415" d="M405.408,184.538c-6.547,2.323-3.272,11.593,3.273,9.27C414.767,191.955,411.955,182.222,405.408,184.538
	L405.408,184.538z"/>
<path fill="#302515" d="M117.896,138.653c-7.01,1.853-3.735,11.122,2.812,9.27C126.782,146.534,124.443,136.801,117.896,138.653
	L117.896,138.653z"/>
<path fill="#302515" d="M358.662,119.651c-6.547,2.778-1.877,12.048,4.207,9.27C368.476,126.143,364.738,117.336,358.662,119.651
	L358.662,119.651z"/>
<path fill="#302515" d="M386.711,149.312c-7.011,1.389-4.217,11.13,2.33,9.27C395.126,157.192,393.258,147.46,386.711,149.312
	L386.711,149.312z"/>
<path fill="#302515" d="M348.37,111.308c-6.539,2.315-2.331,11.122,3.745,9.27C357.721,118.262,354.918,108.993,348.37,111.308
	L348.37,111.308z"/>
<path fill="#302515" d="M337.625,103.428c-6.548,1.854-4.209,11.122,2.33,9.732C346.039,111.771,344.163,101.576,337.625,103.428
	L337.625,103.428z"/>
<path fill="#302515" d="M194.567,86.741c-6.075,2.315-2.803,11.122,3.273,9.27C203.453,94.158,201.577,83.963,194.567,86.741
	L194.567,86.741z"/>
<path fill="#302515" d="M87.98,302.271c-7.01,2.313-3.736,11.584,3.273,9.27C96.395,309.688,94.056,299.955,87.98,302.271
	L87.98,302.271z"/>
<path fill="#302515" d="M208.124,82.573c-6.547,1.853-4.208,11.122,2.339,9.733C216.539,91.38,214.67,81.176,208.124,82.573
	L208.124,82.573z"/>
<polygon fill="#302617" points="259.549,319.42 266.096,319.42 266.096,336.107 268.436,336.107 268.898,319.42 274.974,319.42 
	274.974,317.105 260.02,317.105 "/>
<path fill="#2F2415" d="M288.068,82.573c-7.011,1.853-3.745,11.585,2.803,9.733C296.483,90.446,294.615,81.176,288.068,82.573
	L288.068,82.573z"/>
<polygon fill="#2F2415" points="218.878,336.107 218.878,319.42 225.425,319.42 225.425,317.105 209.992,317.105 209.992,318.957 
	216.539,319.42 216.539,336.107 "/>
<rect x="178.67" y="317.105" fill="#302617" width="2.339" height="19.002"/>
<rect x="204.387" y="317.105" fill="#302718" width="2.339" height="19.002"/>
<path fill="#2F2415" d="M253.936,336.107h2.34c0.472-0.926,0.472-2.779,0.472-4.176l-0.472-14.826h-1.867c0,0.463,0,0-0.473,0.926
	c0,0.463,0,0.926,0,1.389V336.107z"/>
<polygon fill="#302515" points="131.924,335.645 133.792,335.645 134.263,332.395 133.792,323.588 133.792,320.811 133.792,317.568 
	131.924,317.568 "/>
<path fill="#6D5F4F" d="M131.924,317.568h1.868v3.242v2.776l0.471,8.808l-0.471,3.25h-1.868V317.568z M131.924,336.57h2.339v-19.465
	h-2.339C131.453,318.957,131.453,334.256,131.924,336.57L131.924,336.57z"/>
<path fill="#9E8E6C" d="M224.954,57.081l1.404-0.463c0-1.397,0-0.934-0.471-1.86v1.397L224.954,57.081z"/>
<path fill="#A89A77" d="M372.683,93.232l0.472,0.463v-0.463l0.463-0.926C372.22,92.769,373.154,91.843,372.683,93.232
	L372.683,93.232z"/>
<path fill="#A59372" d="M227.293,69.128l1.404-0.463c0-0.463,0,0.463,0-0.463c0-0.926,0-0.463-0.471-0.926v1.389L227.293,69.128z"/>
<path fill="#958367" d="M216.076,45.024v-1.389h0.934h-1.405c0,0.463,0-0.463,0,0.463C216.076,45.024,216.076,45.024,216.076,45.024
	L216.076,45.024z"/>
<path fill="#AD9D7A" d="M247.86,450.59l-0.464-0.926l-0.471,0.463C247.396,450.59,246.926,450.127,247.86,450.59L247.86,450.59z"/>
</svg>
