<?xml version="1.0" standalone="no"?>
<!DOCTYPE svg PUBLIC "-//W3C//DTD SVG 20010904//EN"
 "http://www.w3.org/TR/2001/REC-SVG-20010904/DTD/svg10.dtd">
<svg version="1.0" xmlns="http://www.w3.org/2000/svg"
 width="300.000000pt" height="300.000000pt" viewBox="0 0 300.000000 300.000000"
 preserveAspectRatio="xMidYMid meet">

<g transform="translate(0.000000,300.000000) scale(0.100000,-0.100000)"
fill="#000000" stroke="none">
<path d="M2393 2456 c-109 -35 -194 -117 -230 -218 -14 -41 -18 -82 -18 -178
0 -150 19 -209 92 -290 79 -88 193 -128 332 -116 188 16 306 135 331 333 26
209 -51 380 -203 449 -53 24 -77 29 -162 31 -65 2 -115 -2 -142 -11z m218
-129 c32 -17 50 -37 69 -72 23 -46 25 -59 25 -195 0 -135 -2 -149 -25 -195
-19 -38 -35 -55 -70 -72 -91 -46 -204 -17 -248 64 -50 91 -50 315 1 407 44 81
159 110 248 63z"/>
<path d="M670 2060 l0 -400 80 0 80 0 0 175 0 175 120 0 120 0 0 65 0 64 -117
3 -118 3 -3 93 -3 92 150 0 149 0 6 28 c3 15 8 44 12 65 l6 37 -241 0 -241 0
0 -400z"/>
<path d="M1408 2067 c-82 -216 -148 -396 -148 -400 0 -4 38 -7 84 -7 l84 0 34
93 34 92 140 3 141 3 34 -93 34 -93 88 -3 c49 -2 87 1 87 7 0 5 -63 183 -140
396 -77 214 -140 390 -140 391 0 2 -42 4 -92 4 l-93 0 -147 -393z m283 68 l46
-155 -98 0 -98 0 15 48 c8 26 29 95 47 154 17 60 34 108 37 108 3 0 26 -70 51
-155z"/>
<path d="M100 855 l0 -335 1400 0 1400 0 0 335 0 335 -1400 0 -1400 0 0 -335z"/>
</g>
</svg>
