<?xml version="1.0" encoding="utf-8"?>
<!-- Generator: Adobe Illustrator 23.0.1, SVG Export Plug-In . SVG Version: 6.00 Build 0)  -->
<svg version="1.1" id="Camada_1" xmlns="http://www.w3.org/2000/svg" xmlns:xlink="http://www.w3.org/1999/xlink" x="0px" y="0px"
	 width="500px" height="125px" viewBox="0 0 500 125" style="enable-background:new 0 0 500 125;" xml:space="preserve">
<style type="text/css">
	.st0{fill-rule:evenodd;clip-rule:evenodd;fill:#FFFFFF;}
</style>
<g id="_2215319003296">
	<path class="st0" d="M16.15,98.68C10.37,86.47,8.12,72.4,13.66,57.7c2.25-6.11,5.79-11.89,9.24-16.15c3.54-4.5,4.66-5.95,9.16-9.4
		c1.13-0.88,3.21-2.65,4.9-0.88c2.33,4.1-2.33,6.11-4.66,8.04c-2.25,1.85-4.5,4.66-6.51,7.31c-16.15,21.94-8.76,49.26,10.77,56.66
		c30.06,11.25,56.17-27.16,56.41-54.08c0.48-44.44-45.32-40.5-50.39-1.85c-0.72,5.22,0.08,8.12,0.08,12.78
		c0,8.84-13.42,3.7-2.65-25.23c2.65-6.99,7.23-13.5,11.49-17.12c6.19-5.14,9.97-7.39,20.49-8.28c-26.12-9.8-52.32,9.48-60.83,23.39
		C5.54,42.19,1.53,54.8,2.89,68.22c0.96,9.24,5.14,20.73,11.09,27.73C15.19,97.24,16.07,97.72,16.15,98.68L16.15,98.68z"/>
	<path class="st0" d="M36.81,113.23c10.05,6.03,29.65,5.14,40.82,0.72c44.12-17.76,44.12-73.61,14.47-94.27
		c4.9,11.65,8.44,16.72,6.19,33.99c-2.41,19.37-14.47,40.82-29.65,51.91C57.54,113.71,52.32,113.79,36.81,113.23L36.81,113.23z"/>
</g>
<path class="st0" d="M194.05,43.2l-0.43-9.34c-3.11-2.15-6.44-3.65-9.88-4.83c-3.54-0.86-7.2-1.5-10.85-1.5
	c-9.56,0-17.29,2.9-22.98,8.7c-5.69,5.91-8.7,13.53-8.7,23.31c0,6.77,1.5,12.89,4.4,18.37c2.9,5.37,7.2,9.56,12.57,12.67
	c5.48,3.11,11.06,4.83,17.08,4.83c4.83,0,9.34-0.54,14.18-1.61c3.44-0.75,6.98-2.58,10.53-5.16l1.07,1.07
	c-0.75,1.61-1.5,3.33-2.04,4.94c-4.19,2.04-8.27,3.54-12.46,4.62c-4.19,1.07-8.48,1.5-12.67,1.5c-8.81,0-16.33-1.61-22.98-4.94
	c-6.66-3.33-11.81-8.06-15.25-13.96c-3.44-5.91-5.26-12.67-5.26-20.19s1.83-14.18,5.26-19.98c3.54-5.91,8.59-10.53,15.25-13.75
	c6.55-3.33,14.71-4.94,24.06-4.94c4.94,0,10.85,0.75,17.61,2.36c3.33,0.75,6.12,1.29,8.06,1.61c-1.61,3.87-2.36,9.24-2.79,16.22
	H194.05L194.05,43.2z M227.13,63.5v13v7.52c0,4.83,0,8.06,0.21,10.31c5.16,0.43,10.85,0.54,16.76,0.54c4.08,0,7.3-0.21,10.1-0.54
	c1.83-0.21,3.65-0.75,5.48-1.5c0.97-3.11,1.83-6.98,2.79-11.81h3.44c-0.86,7.73-1.5,13-1.5,15.68l0.21,2.36
	c-4.08,0.43-8.06,0.54-12.14,0.54l-8.27-0.21c-9.24-0.21-16-0.43-20.41-0.43c-4.3,0-9.77,0.21-16.54,0.43v-3.33h1.61
	c3.11,0,4.94-0.43,5.91-0.86c0.75-0.54,1.29-2.04,1.61-4.19c0.11-2.26,0.32-7.2,0.32-14.71V47.07c0-4.83-0.21-8.59-0.32-11.81
	c-0.21-3.11-0.54-4.83-0.75-5.26c-0.21-0.54-0.75-1.07-1.07-1.29c-0.54-0.43-2.04-0.54-4.62-0.97l-4.08-0.32v-3.54h5.69l5.69,0.21
	c3.11,0.21,5.48,0.21,7.2,0.21l20.62-0.21h9.77c3.33,0,6.55,0,10.1,0.43c-1.5,4.19-2.26,9.77-2.36,16.54h-3.44
	c0-3.87-0.21-7.2-0.54-9.77c-4.19-1.61-9.34-2.36-15.57-2.36c-4.94,0-9.99,0.11-15.47,0.54c0,3.33,0,6.66,0,10.1l-0.21,8.27v10.85
	c3.54,0.21,6.66,0.43,9.34,0.43c8.48,0,13.43-0.43,14.5-0.86c1.07-0.54,1.61-2.36,1.61-5.59v-3.54h3.54
	c-0.21,5.26-0.43,9.56-0.43,12.89c0,3.33,0.21,7.3,0.43,11.92h-3.54V70.8c0-3.33-0.75-5.48-2.04-6.23
	c-1.29-0.75-6.12-1.07-14.28-1.07C233.57,63.07,230.46,63.28,227.13,63.5L227.13,63.5z M287.27,35.68v36.95
	c0,8.48,0.21,14.18,0.54,17.61c0.21,2.58,0.75,4.08,1.29,4.62s2.36,0.86,5.16,1.07l3.54,0.21v3.33c-3.87-0.21-7.3-0.43-10.53-0.43
	c-2.26,0-7.2,0.21-14.93,0.43v-3.33h3.87c2.36,0,3.87-0.43,4.62-0.86c0.75-0.75,1.07-1.83,1.29-3.65c0.43-3.87,0.54-9.24,0.54-15.79
	V49.32c0-4.94,0-9.99-0.21-14.71c0-2.04-0.43-3.54-0.75-4.19c-0.54-0.75-1.07-1.5-2.15-2.04c-0.86-0.54-2.26-0.86-3.87-0.86h-3.33
	v-3.54c4.62,0.21,7.84,0.43,10.31,0.43c2.58,0,5.26-0.21,8.48-0.43c3.54,4.19,6.87,8.48,9.88,12.46c3.11,4.08,6.44,8.27,9.77,12.35
	l18.26,22.23c6.55,8.06,11.38,13.64,14.18,16.76V53.72c0-14.39-0.21-22.02-0.75-23.52c-0.54-1.29-2.58-2.26-6.23-2.58l-4.08-0.32
	v-3.33c5.69,0.21,10.1,0.43,13.21,0.43c3.33,0,7.52-0.21,12.67-0.43v3.33h-4.08c-3.33,0-5.16,1.07-5.69,3.33
	c-0.43,1.5-0.54,9.24-0.54,23.41v24.06c0,6.44,0.43,14.18,0.86,23.2c-4.83-0.75-7.52-1.29-8.48-1.61c-0.75-0.43-1.5-0.97-2.26-1.61
	c-4.08-4.4-8.06-9.24-12.46-14.5L287.27,35.68z M384.69,63.5v13v7.52c0,4.83,0,8.06,0.21,10.31c5.16,0.43,10.85,0.54,16.65,0.54
	c4.08,0,7.41-0.21,10.1-0.54c1.61-0.21,3.65-0.75,5.48-1.5c0.86-3.11,1.83-6.98,2.79-11.81h3.54c-0.97,7.73-1.5,13-1.5,15.68
	l0.21,2.36c-4.08,0.43-8.06,0.54-12.14,0.54l-8.27-0.21c-9.13-0.21-16-0.43-20.41-0.43c-4.19,0-9.77,0.21-16.54,0.43v-3.33h1.61
	c3.11,0,4.94-0.43,5.91-0.86c0.75-0.54,1.29-2.04,1.61-4.19c0.21-2.26,0.43-7.2,0.43-14.71V47.07c0-4.83-0.21-8.59-0.43-11.81
	s-0.54-4.83-0.75-5.26c-0.21-0.54-0.75-1.07-1.18-1.29c-0.54-0.43-2.04-0.54-4.62-0.97l-4.08-0.32v-3.54h5.69l5.69,0.21
	c3.11,0.21,5.59,0.21,7.2,0.21l20.62-0.21h9.77c3.33,0,6.66,0,10.1,0.43c-1.5,4.19-2.15,9.77-2.36,16.54h-3.54
	c0-3.87-0.21-7.2-0.54-9.77c-4.19-1.61-9.34-2.36-15.47-2.36c-4.94,0-9.88,0.11-15.47,0.54c0,3.33,0,6.66-0.21,10.1l-0.21,8.27
	v10.85c3.44,0.21,6.77,0.43,9.34,0.43c8.7,0,13.43-0.43,14.5-0.86c1.07-0.54,1.61-2.36,1.61-5.59v-3.54h3.44
	c-0.21,5.26-0.43,9.56-0.43,12.89c0,3.33,0.21,7.3,0.43,11.92h-3.44V70.8c0-3.33-0.75-5.48-2.04-6.23s-6.12-1.07-14.28-1.07
	C390.92,63.07,387.8,63.28,384.69,63.5L384.69,63.5z M459.12,61.46l-7.95-12.89c-4.94-8.48-9.24-14.18-12.35-17.08
	c-1.61-1.61-3.44-2.36-5.48-2.36c-0.75,0-1.83,0-3.33,0.21v-3.44l15.68-2.58c1.61,1.5,3.11,2.9,4.4,4.4
	c1.07,1.61,3.33,4.94,6.44,10.1l8.81,15.25l20.08-29h11.38v3.11h-2.04c-1.5,0-2.58,0.21-3.33,0.75c-0.75,0.54-3.11,3.33-7.2,8.48
	c-7.52,9.77-13.1,16.86-16.22,21.27l17.72,27.93c3.44,5.69,5.69,9.02,6.55,9.77c0.75,0.75,2.04,1.07,3.54,1.07H498v3.33
	c-4.08-0.21-7.2-0.43-9.34-0.43c-2.26,0-4.4,0.21-6.66,0.43L461.8,66.18c-2.58,3.65-6.44,9.34-11.6,17.29
	c-4.94,7.73-8.48,13.21-10.1,16.33c-1.61-0.21-3.33-0.43-4.94-0.43c-2.04,0-4.08,0.21-6.44,0.43v-3.44h2.36
	c1.5,0,2.58-0.43,3.54-1.29c0.97-0.97,4.83-6.12,11.81-15.47L459.12,61.46z"/>
</svg>
